<?xml version="1.0" encoding="UTF-8" standalone="no"?>
<!-- Generator: Adobe Illustrator 12.0.0, SVG Export Plug-In . SVG Version: 6.00 Build 51448)  -->

<svg
   xmlns:dc="http://purl.org/dc/elements/1.1/"
   xmlns:cc="http://creativecommons.org/ns#"
   xmlns:rdf="http://www.w3.org/1999/02/22-rdf-syntax-ns#"
   xmlns:svg="http://www.w3.org/2000/svg"
   xmlns="http://www.w3.org/2000/svg"
   xmlns:sodipodi="http://sodipodi.sourceforge.net/DTD/sodipodi-0.dtd"
   xmlns:inkscape="http://www.inkscape.org/namespaces/inkscape"
   id="Layer_1"
   sodipodi:docname="ButterflyBase.svg"
   xml:space="preserve"
   viewBox="0 0 1080 1080"
   sodipodi:version="0.32"
   version="1.1"
   inkscape:output_extension="org.inkscape.output.svg.inkscape"
   inkscape:version="0.48.5 r10040"
   width="100%"
   height="100%"><defs
     id="defs3067" /><sodipodi:namedview
     id="base"
     bordercolor="#666666"
     inkscape:pageshadow="2"
     inkscape:window-width="1440"
     pagecolor="#ffffff"
     inkscape:zoom="1.0623665"
     inkscape:window-x="0"
     borderopacity="1.0"
     inkscape:current-layer="layer2"
     inkscape:cx="763.34773"
     inkscape:cy="287.87878"
     inkscape:window-y="0"
     inkscape:window-height="851"
     inkscape:pageopacity="0.0"
     showgrid="false"
     inkscape:window-maximized="1"
     inkscape:document-units="in"
     showguides="true"
     inkscape:guide-bbox="true"
     units="in"
     inkscape:snap-global="false"><sodipodi:guide
       orientation="1,0"
       position="540,0 "
       id="guide3101" /><sodipodi:guide
       orientation="0,1"
       position="306.56516,277.29512"
       id="guide3273" /></sodipodi:namedview><path
     id="path21"
     style="stroke-width:0;stroke-miterlimit:10"
     d="M 387.47911,718.47616 H 370.64905"
     inkscape:connector-curvature="0" /><path
     id="path25"
     style="fill-rule:evenodd;stroke:#3f3f3f;stroke-width:1.9256357"
     d="M 246.11819,822.82829"
     inkscape:connector-curvature="0" /><line
     id="line27"
     style="stroke-width:0;stroke-miterlimit:10"
     y2="822.82837"
     y1="822.82837"
     x2="246.11819"
     x1="246.11819" /><metadata
     id="metadata3065"><rdf:RDF><cc:Work><dc:format>image/svg+xml</dc:format><dc:type
           rdf:resource="http://purl.org/dc/dcmitype/StillImage" /><cc:license
           rdf:resource="http://creativecommons.org/licenses/publicdomain/" /><dc:publisher><cc:Agent
             rdf:about="http://openclipart.org/"><dc:title>Openclipart</dc:title></cc:Agent></dc:publisher><dc:title></dc:title><dc:date>2009-06-03T19:24:03</dc:date><dc:description>Black and white butterfly by Francesco 'Architetto' Rollandin. From OCAL 0.18 release.</dc:description><dc:source>https://openclipart.org/detail/26451/architetto----farfalla-02-by-anonymous</dc:source><dc:creator><cc:Agent><dc:title>Anonymous</dc:title></cc:Agent></dc:creator><dc:subject><rdf:Bag><rdf:li>animal</rdf:li><rdf:li>butterfly</rdf:li><rdf:li>insect</rdf:li><rdf:li>outline</rdf:li></rdf:Bag></dc:subject></cc:Work><cc:License
         rdf:about="http://creativecommons.org/licenses/publicdomain/"><cc:permits
           rdf:resource="http://creativecommons.org/ns#Reproduction" /><cc:permits
           rdf:resource="http://creativecommons.org/ns#Distribution" /><cc:permits
           rdf:resource="http://creativecommons.org/ns#DerivativeWorks" /></cc:License></rdf:RDF></metadata><g
     inkscape:groupmode="layer"
     id="layer2"
     inkscape:label="Lower"
     style="display:inline"><g
       id="g3263"
       transform="translate(-0.43939738,0.61955787)"
       style="fill:#ffff00"><path
         inkscape:connector-curvature="0"
         d="M 387.47911,718.47616 H 370.64905"
         style="fill:#ffff00;stroke-width:0;stroke-miterlimit:10"
         id="path21-8" /><path
         inkscape:connector-curvature="0"
         d="M 246.11819,822.82829"
         style="fill:#ffff00;fill-rule:evenodd;stroke:#3f3f3f;stroke-width:1.9256357"
         id="path25-4" /><line
         x1="246.11819"
         x2="246.11819"
         y1="822.82837"
         y2="822.82837"
         style="fill:#ffff00;stroke-width:0;stroke-miterlimit:10"
         id="line27-0" /><g
         transform="translate(0,839.758)"
         style="fill:#ffff00;display:inline"
         inkscape:label="Background"
         id="layer1-7"><path
           sodipodi:nodetypes="sccssccccscccccccscccscscsccccscccscccscsscscccccscsscscccscccsccccscscscccsccccccccscccssccscccccccsccccccccccccccsccccsccccccscccccccccsccccccsccccsccccccccccccccscccccccs"
           inkscape:connector-curvature="0"
           id="path5-3"
           transform="translate(0,-839.758)"
           d="m 38.96875,534.6875 c -15.886968,0.23211 -29.1657548,5.39336 -35.875,18.8125 -9.2826111,18.56523 8.693767,46.51754 15.65625,64.1875 7.834634,19.93754 14.6875,39.08286 14.6875,60.75 0,6.0441 3.6875,11.48424 3.6875,18.34375 0,4.6907 -1.141221,10.46755 0.96875,14.6875 5.718358,11.43461 4.736275,21.32736 12.5625,33.0625 12.86578,19.29446 43.244037,58.4375 63.625,58.4375 -17.363116,7.89558 -28.278592,7.45825 -36.75,25.71875 -4.129576,8.90222 -11,17.63051 -11,27.5625 0,10.3439 4.520537,14.80268 -0.96875,25.78125 -6.392959,12.78802 -4.768995,11.69563 4.625,20.125 3.894198,3.4949 4.191402,-1.29111 7.34375,3.6875 1.586681,2.50507 -0.903673,8.11455 0,11 0.451837,1.44588 6.845679,1.6422 7.34375,7.34375 0.41611,4.75375 -2.204745,9.5506 -5.5,12.84375 -7.235686,7.23568 6.255818,17.81456 9.1875,20.21875 19.05278,15.62303 15.8985,33.08364 7.90625,57.0625 -6.250054,18.7523 -28.462264,37.0197 -15.28125,56.8437 18.058744,27.1612 19.58686,-26.9859 22.0625,-36.75 3.20699,-12.6364 12.0253,-24.8217 24,-28.8124 10.95756,-3.6527 19.63242,3.0937 29.34375,3.0937 6.82167,0 11.39706,3.6558 18.21875,3.6563 5.18454,0 9.05531,-3.6563 14.6875,-3.6563 7.96492,0 13.37177,-11.43218 16.625,-14.6875 3.20488,-3.20279 14.6875,-9.27665 14.6875,-16.53125 0,-9.30992 2.6405,-23.5265 4.9375,-32.71875 6.15549,-24.64505 12.18446,-49.84727 20.21875,-73.9375 3.03886,-9.11659 4.42185,-18.06662 7.90625,-27.4375 0.96078,-2.58573 2.37845,-4.81001 3.9375,-6.9375 -0.14377,2.83362 -0.25,5.6916 -0.25,8.5 0,11.70571 0.63929,54.78093 11,57.21875 16.94492,-2.03852 10.08788,-40.32237 13.40625,-53.59375 0.86045,-3.4418 1.23587,-6.83491 1.4375,-10.1875 1.4605,2.39271 3.19885,4.66761 5.375,6.84375 4.12958,4.12957 5.10211,22.3459 6.78125,29.0625 6.21223,24.83839 14.16278,49.2782 20.375,74.125 2.49246,9.96983 1.39141,21.56688 4.0625,30.90625 3.2238,11.27909 12.85094,9.19469 20.1875,16.53125 3.17127,3.17127 -0.0832,8.20795 3.75,10.12505 4.28718,2.1457 9.90434,6.4062 14.6875,6.4062 11.62375,0 22.1817,-3.6875 32.9375,-3.6875 10.79994,0 19.71425,-7.9355 31.28125,0 10.01817,6.8742 14.71875,23.7229 14.71875,35.25 0,5.0774 1.2686,27.2477 3.6875,30.875 2.95166,4.4259 7.74188,6.2578 12.15625,5.125 5.4394,0.4497 52.03146,0.1252 86.5625,0.031 23.10095,0.011 58.91413,0.1308 87.6875,0.031 4.64836,0.1676 9.07959,-0.7616 12.03125,-5.1875 2.4189,-3.6273 3.6875,-25.7976 3.6875,-30.875 0,-11.5271 4.70058,-28.3758 14.71875,-35.25 11.567,-7.9355 20.48131,0 31.28125,0 10.7558,0 21.31375,3.6875 32.9375,3.6875 4.78316,0 10.40032,-4.2606 14.6875,-6.4062 3.83316,-1.9167 0.57873,-6.95378 3.75,-10.12505 7.33656,-7.33656 16.9637,-5.25216 20.1875,-16.53125 2.67109,-9.33937 1.57004,-20.93642 4.0625,-30.90625 6.21222,-24.8468 14.16277,-49.28661 20.375,-74.125 1.67914,-6.7166 2.65167,-24.93293 6.78125,-29.0625 2.17615,-2.17614 3.9145,-4.45104 5.375,-6.84375 0.20163,3.35259 0.57705,6.7457 1.4375,10.1875 3.31837,13.27138 -3.53867,51.55523 13.40625,53.59375 10.36071,-2.43782 11,-45.51304 11,-57.21875 0,-2.8084 -0.10623,-5.66638 -0.25,-8.5 1.55905,2.12749 2.97672,4.35177 3.9375,6.9375 3.4844,9.37088 4.89864,18.32091 7.9375,27.4375 8.03429,24.09023 14.03201,49.29245 20.1875,73.9375 2.297,9.19225 4.9375,23.40883 4.9375,32.71875 0,7.2546 11.48262,13.32846 14.6875,16.53125 3.25323,3.25532 8.66008,14.6875 16.625,14.6875 5.63219,0 9.50296,3.6562 14.6875,3.6563 6.82169,-10e-5 11.39708,-3.6563 18.21875,-3.6563 9.71133,0 18.41744,-6.7464 29.375,-3.0937 11.9747,3.9908 20.76176,16.1761 23.96875,28.8124 2.47564,9.7642 4.00376,63.9107 22.0625,36.75 13.1811,-19.8237 -9.03119,-38.0914 -15.28125,-56.8437 -7.99225,-23.97886 -11.14653,-41.43947 7.90625,-57.0625 2.93169,-2.40419 16.4232,-12.98307 9.1875,-20.21875 -3.29523,-3.29315 -5.91611,-8.09 -5.5,-12.84375 0.49807,-5.70155 6.8919,-5.89787 7.3437,-7.34375 0.904,-2.88545 -1.5866,-8.49493 0,-11 3.1523,-4.97861 3.4496,-0.1926 7.3438,-3.6875 9.394,-8.42937 11.0179,-7.33698 4.625,-20.125 -5.4893,-10.97857 -0.9688,-15.43735 -0.9688,-25.78125 10e-5,-9.93199 -6.8703,-18.66028 -11,-27.5625 -8.47106,-18.2605 -19.38683,-17.82317 -36.74995,-25.71875 20.38096,0 50.75955,-39.14304 63.62495,-58.4375 7.8265,-11.73514 6.8438,-21.62789 12.5626,-33.0625 2.1096,-4.21995 0.9687,-9.9968 0.9687,-14.6875 0,-6.85951 3.6875,-12.29965 3.6875,-18.34375 0,-21.66714 6.8529,-40.81246 14.6875,-60.75 6.9625,-17.66996 24.9384,-45.62227 15.6563,-64.1875 -6.7095,-13.41914 -19.9885,-18.58039 -35.875,-18.8125 -34.9517,-0.51065 -82.60977,22.94912 -101.0313,35.3125 -42.19311,28.31858 -80.53357,67.25685 -99.71875,115.21875 -4.5666,11.41485 -9.87583,27.54444 -14.34375,38.59375 -3.81533,-8.62437 -0.67197,-21.80627 -6.125,-28.25 8.10216,-9.01756 6.03617,-10.85789 25.46875,-48.6875 4.83868,-8.80753 10.23726,-21.39034 17.625,-29.96875 8.14611,-11.64434 17.60266,-34.10655 23.78125,-47.28125 1.43327,-3.05357 2.92971,-5.88836 3.53125,-9.25 0.98131,-5.48397 2.41743,-3.62215 3.53125,-6.59375 0.81752,-2.17933 4.95316,-10.4531 2.1875,-13.21875 -0.0747,-0.0746 -0.1584,-0.14095 -0.25,-0.15625 -2.83948,-0.47252 -16.64286,23.89533 -18.125,28.34375 -5.28123,15.8458 -19.68348,40.95657 -23.21875,47.625 -5.26841,7.66265 -9.996,16.96522 -14.25,25.25 -2.8117,3.15527 -4.04646,6.32433 -5,8.1875 -7.92931,11.76211 -13.23656,29.90741 -20.0625,42.03125 -1.89097,-0.7508 -2.64429,-1.25971 -5.625,-0.90625 -2.16571,0.25656 -3.33251,0.048 -4.75,0.875 -3.15598,-3.65822 -6.11122,-10.0534 -7.6875,-13.125 -4.25669,-7.77829 -10.00844,-21.84049 -19.3125,-39.625 0.95787,2.08459 -0.71927,-1.28925 -2.53125,-4.5 -1.72771,-3.5539 -2.33429,-4.37283 -5.34375,-8.40625 -1.10002,-2.27624 -4.09576,-9.25402 -5.5625,-12.1875 -6.952,-13.90396 -16.96559,-27.62951 -23.09375,-42 -1.62543,-3.81238 -13.33027,-30.84883 -17.15625,-31.65625 -0.25506,-0.0538 -1.32162,0.35287 -1.53125,0.5625 -2.78668,2.78877 2.57639,12.49739 3.375,14.71875 1.03396,2.88125 2.79695,2.24767 3.625,7.28125 0.62359,3.79072 1.57495,6.38741 2.78125,10 2.07214,6.21643 7.97037,14.59901 10.90625,21.4375 3.45286,8.04059 7.56424,14.76824 12.40625,22.03125 5.18102,7.87987 7.66345,13.6462 11.5,19.03125 8.55736,16.30816 19.18084,36.47937 24.625,47.1875 1.82309,3.77362 5.95767,12.54636 7.09375,14.8125 -1.39539,1.56639 -2,4.95814 -2,10.25 0,6.07342 -2.53745,10.52174 -3.15625,15.875 -5.17737,-11.39164 -10.54364,-24.26793 -14.6875,-34.625 -19.55085,-48.87479 -56.1239,-89.67741 -99.71875,-118.9375 -26.55329,-17.81916 -117.16508,-58.01568 -138,-16.34375 -0.94753,2.15928 -1.13057,3.01974 -2.03125,5.28125 -0.90068,-2.26151 -1.45872,-3.24697 -2.40625,-5.40625 -20.83492,-41.67193 -110.32171,-1.35041 -136.875,16.46875 -43.59485,29.26009 -80.1679,70.06351 -99.71875,118.9375 -4.14386,10.35707 -9.51013,23.23336 -14.6875,34.625 -0.6188,-5.35326 -3.125,-9.80158 -3.125,-15.875 0,-5.29186 -0.63586,-8.68361 -2.03125,-10.25 1.13608,-2.26614 5.27066,-11.03888 7.09375,-14.8125 5.44416,-10.70813 16.09889,-30.87934 24.65625,-47.1875 3.83655,-5.38505 6.28773,-11.15138 11.46875,-19.03125 4.84201,-7.26301 8.95339,-13.99066 12.40625,-22.03125 2.93588,-6.83849 8.83411,-15.22107 10.90625,-21.4375 1.2063,-3.61259 2.15766,-6.20928 2.78125,-10 0.82805,-5.03358 2.62229,-4.4 3.65625,-7.28125 0.79861,-2.22136 6.13043,-11.92998 3.34375,-14.71875 -0.20963,-0.20963 -1.27619,-0.61633 -1.53125,-0.5625 -3.82598,0.80742 -15.53082,27.84387 -17.15625,31.65625 -6.12816,14.37049 -16.14175,28.09604 -23.09375,42 -1.46674,2.93348 -4.46248,9.91126 -5.5625,12.1875 -3.00946,4.03342 -3.61604,4.85235 -5.34375,8.40625 -1.81198,3.21075 -3.48912,6.58459 -2.53125,4.5 -9.30406,17.78451 -15.05581,31.84671 -19.3125,39.625 -1.57628,3.0716 -4.53152,9.46678 -7.6875,13.125 -1.41749,-0.82705 -2.58429,-0.61844 -4.75,-0.875 -2.98071,-0.35346 -3.70278,0.15545 -5.59375,0.90625 -6.82594,-12.12384 -12.16444,-30.26914 -20.09375,-42.03125 -0.95354,-1.86317 -2.1883,-5.03223 -5,-8.1875 -4.254,-8.28478 -8.98159,-17.58735 -14.25,-25.25 -3.53527,-6.66843 -17.93752,-31.7792 -23.21875,-47.625 -1.48214,-4.44842 -15.28552,-28.81627 -18.125,-28.34375 -0.0916,0.0153 -0.17533,0.0816 -0.25,0.15625 -2.76566,2.76565 1.40123,11.03942 2.21875,13.21875 1.11382,2.9716 2.51869,1.10978 3.5,6.59375 0.60154,3.36164 2.09798,6.19643 3.53125,9.25 6.17859,13.1747 15.63514,35.63691 23.78125,47.28125 7.38774,8.57841 12.81757,21.16122 17.65625,29.96875 19.43258,37.82961 17.33534,39.66994 25.4375,48.6875 -5.45303,6.44373 -2.30967,19.62563 -6.125,28.25 -4.46792,-11.04931 -9.77715,-27.1789 -14.34375,-38.59375 C 220.53357,637.25775 182.19311,598.31858 140,570 121.57847,557.63662 73.920079,534.17685 38.96875,534.6875 z"
           style="fill:#ffff00;stroke-width:0;stroke-miterlimit:10;display:inline" /></g><g
         transform="translate(0,315)"
         inkscape:label="Text"
         id="layer2-4"
         style="fill:#ffff00"><text
           transform="translate(0,-315)"
           sodipodi:linespacing="125%"
           id="text3093"
           y="790.60602"
           x="576.55756"
           style="font-size:64px;font-style:normal;font-weight:normal;line-height:125%;letter-spacing:0px;word-spacing:0px;fill:#ffff00;fill-opacity:1;stroke:none;font-family:Sans"
           xml:space="preserve"><tspan
             y="790.60602"
             x="576.55756"
             id="tspan3095"
             sodipodi:role="line" /></text>
</g></g></g></svg>