<?xml version="1.0" encoding="UTF-8" standalone="no"?>
<!-- Generator: Adobe Illustrator 12.0.0, SVG Export Plug-In . SVG Version: 6.00 Build 51448)  -->

<svg
   xmlns:dc="http://purl.org/dc/elements/1.1/"
   xmlns:cc="http://creativecommons.org/ns#"
   xmlns:rdf="http://www.w3.org/1999/02/22-rdf-syntax-ns#"
   xmlns:svg="http://www.w3.org/2000/svg"
   xmlns="http://www.w3.org/2000/svg"
   xmlns:sodipodi="http://sodipodi.sourceforge.net/DTD/sodipodi-0.dtd"
   xmlns:inkscape="http://www.inkscape.org/namespaces/inkscape"
   id="Layer_1"
   sodipodi:docname="Butterfly.svg"
   xml:space="preserve"
   viewBox="0 0 990 765"
   sodipodi:version="0.32"
   version="1.1"
   inkscape:output_extension="org.inkscape.output.svg.inkscape"
   inkscape:version="0.48.5 r10040"
   width="100%"
   height="100%"><defs
     id="defs3067" /><sodipodi:namedview
     id="base"
     bordercolor="#666666"
     inkscape:pageshadow="2"
     inkscape:window-width="1440"
     pagecolor="#ffffff"
     inkscape:zoom="1.836011"
     inkscape:window-x="0"
     borderopacity="1.0"
     inkscape:current-layer="layer1"
     inkscape:cx="345.97415"
     inkscape:cy="126.08296"
     inkscape:window-y="0"
     inkscape:window-height="851"
     inkscape:pageopacity="0.0"
     showgrid="false"
     inkscape:window-maximized="1"
     inkscape:document-units="in"
     showguides="true"
     inkscape:guide-bbox="true"><sodipodi:guide
       orientation="1,0"
       position="495,0"
       id="guide3101" /></sodipodi:namedview><path
     id="path21"
     style="stroke-width:0;stroke-miterlimit:10"
     d="M 387.47911,403.47616 H 370.64905"
     inkscape:connector-curvature="0" /><path
     id="path25"
     style="fill-rule:evenodd;stroke:#3f3f3f;stroke-width:1.9256357"
     d="M 246.11819,507.82829"
     inkscape:connector-curvature="0" /><line
     id="line27"
     style="stroke-width:0;stroke-miterlimit:10"
     y2="507.82834"
     y1="507.82834"
     x2="246.11819"
     x1="246.11819" /><metadata
     id="metadata3065"><rdf:RDF><cc:Work><dc:format>image/svg+xml</dc:format><dc:type
           rdf:resource="http://purl.org/dc/dcmitype/StillImage" /><cc:license
           rdf:resource="http://creativecommons.org/licenses/publicdomain/" /><dc:publisher><cc:Agent
             rdf:about="http://openclipart.org/"><dc:title>Openclipart</dc:title></cc:Agent></dc:publisher><dc:title>Architetto -- Farfalla 02</dc:title><dc:date>2009-06-03T19:24:03</dc:date><dc:description>Black and white butterfly by Francesco 'Architetto' Rollandin. From OCAL 0.18 release.</dc:description><dc:source>https://openclipart.org/detail/26451/architetto----farfalla-02-by-anonymous</dc:source><dc:creator><cc:Agent><dc:title>Anonymous</dc:title></cc:Agent></dc:creator><dc:subject><rdf:Bag><rdf:li>animal</rdf:li><rdf:li>butterfly</rdf:li><rdf:li>insect</rdf:li><rdf:li>outline</rdf:li></rdf:Bag></dc:subject></cc:Work><cc:License
         rdf:about="http://creativecommons.org/licenses/publicdomain/"><cc:permits
           rdf:resource="http://creativecommons.org/ns#Reproduction" /><cc:permits
           rdf:resource="http://creativecommons.org/ns#Distribution" /><cc:permits
           rdf:resource="http://creativecommons.org/ns#DerivativeWorks" /></cc:License></rdf:RDF></metadata><g
     inkscape:groupmode="layer"
     id="layer1"
     inkscape:label="Wings"
     style="display:inline"
     transform="translate(0,524.758)"><path
       style="stroke-width:0;stroke-miterlimit:10;display:inline"
       d="m 35.75,303.84375 c -14.557017,0.21268 -26.7274081,4.95422 -32.875,17.25 -8.5055329,17.01107 7.964119,42.62175 14.34375,58.8125 7.17877,18.2685 13.46875,35.80294 13.46875,55.65625 0,5.53813 3.375,10.52722 3.375,16.8125 0,4.29802 -1.058338,9.57082 0.875,13.4375 5.239655,10.47738 4.360184,19.55975 11.53125,30.3125 11.788743,17.67926 39.606444,15.0625 58.28125,15.0625 C 88.840407,518.42211 78.855988,518.01815 71.09375,534.75 67.309875,542.90699 61,550.89945 61,560 c 0,9.47798 4.154761,13.56548 -0.875,23.625 -5.857783,11.71749 -4.388842,10.71378 4.21875,18.4375 3.568202,3.20233 3.861546,-1.18683 6.75,3.375 1.453855,2.29536 -0.828023,7.44985 0,10.09375 0.414012,1.32484 6.262374,1.4945 6.71875,6.71875 0.381276,4.3558 -2.011852,8.76378 -5.03125,11.78125 -6.629963,6.62996 5.719989,16.32832 8.40625,18.53125 17.457814,14.31517 14.573192,30.30974 7.25,52.28125 -5.726841,17.18244 -26.077587,33.89798 -14,52.0625 16.546987,24.88692 17.950351,-24.70975 20.21875,-33.65625 2.93852,-11.57885 10.99649,-22.74947 21.96875,-26.40625 10.04027,-3.34675 18.00788,2.84375 26.90625,2.84375 6.2506,0 10.43688,3.34375 16.6875,3.34375 4.75053,0 8.30805,-3.34375 13.46875,-3.34375 7.29815,0 12.23786,-10.48594 15.21875,-13.46875 2.93659,-2.93467 13.46875,-8.50896 13.46875,-15.15625 0,-8.53056 2.42654,-21.54602 4.53125,-29.96875 5.64019,-22.58193 11.13829,-45.67644 18.5,-67.75 2.78447,-8.35341 4.05729,-16.53859 7.25,-25.125 0.88035,-2.36927 2.19646,-4.42561 3.625,-6.375 -0.13174,2.59641 -0.25,5.20795 -0.25,7.78125 0,10.72579 0.60037,50.20376 10.09375,52.4375 15.5264,-1.86787 9.24068,-36.93336 12.28125,-49.09375 0.78842,-3.15368 1.12775,-6.27182 1.3125,-9.34375 1.33824,2.19241 2.94353,4.28728 4.9375,6.28125 3.78388,3.78387 4.68018,20.47067 6.21875,26.625 5.69218,22.75909 12.96407,45.13946 18.65625,67.90625 2.28381,9.13522 1.27126,19.75496 3.71875,28.3125 2.95392,10.33488 11.77761,8.43386 18.5,15.15625 2.90579,2.90579 -0.0748,7.52508 3.4375,9.28125 3.92829,1.96608 9.086,5.875 13.46875,5.875 10.65069,0 20.30085,-3.375 30.15625,-3.375 9.89584,0 18.08881,-7.2712 28.6875,0 9.17951,6.29875 13.46875,21.71914 13.46875,32.28125 0,4.65234 1.15859,24.98885 3.375,28.3125 5.40911,8.11078 17.58019,3.18179 20.1875,-3.375 7.0536,-17.73125 -11.98975,-40.76074 -19.34375,-55.46875 -4.30187,-8.60566 -5.53782,-19.13634 -4.21875,-28.6875 0.3312,-2.39356 2.04824,-11.50652 3.375,-13.46875 2.72863,-4.0342 10.09375,-2.6794 10.09375,-8.40625 0,-1.10531 6.35737,-4.70112 8.40625,-6.75 4.26528,-4.26528 -0.69387,-7.15972 -1.6875,-11.78125 -0.89927,-4.18441 -3.375,-6.09441 -3.375,-11.75 0,-5.30128 6.75,-3.7826 6.75,-6.75 0,-3.60479 -0.92751,-7.47874 1.6875,-10.09375 2.35506,-2.35505 8.40625,-0.43456 8.40625,-3.375 0,-2.64197 3.375,-1.42518 3.375,-6.71875 0,-4.59264 -3.375,-6.47251 -3.375,-10.15625 0,-5.9117 -3.375,-7.43012 -3.375,-13.34375 0,-4.1767 3.63495,-6.30177 3.375,-11.84375 -0.42364,-9.02738 -10.09375,-16.4768 -10.09375,-25.25 0,-14.19001 -24.41705,-15.20075 -33.65625,-21.875 23.70842,0 41.17395,2.5722 58.96875,-15.21875 9.50494,-9.50109 5.48855,-19.43046 10.84375,-30.15625 2.34349,-4.69085 4.21875,-24.81778 4.21875,-30.25 0,-19.48166 6.30153,-37.41277 13.46875,-55.65625 6.37385,-16.21577 22.86853,-41.79417 14.34375,-58.84375 -19.09076,-38.18343 -101.07583,-1.23371 -125.40625,15.09375 -39.94538,26.81063 -73.46081,64.18616 -91.375,108.96875 -3.79696,9.49004 -8.38105,21.96824 -13.125,32.40625 -0.567,-4.90512 -3.21875,-9.65376 -3.21875,-15.21875 0,-4.84886 -0.72879,-8.56438 -3.37307,-11.36535 1.04097,-2.07644 6.21031,-9.34963 7.88079,-12.50386 4.98841,-9.81172 14.26607,-28.31149 22.10706,-43.25444 3.51538,-4.93425 5.63792,-9.74988 10.38522,-16.9701 4.43667,-6.655 7.89869,-14.50751 11.0625,-21.875 2.69011,-6.26601 7.78882,-12.71022 9.6875,-18.40625 1.10531,-3.31017 2.84375,-6.72993 2.84375,-10.25 0,-7.04013 2.39634,-2.35995 3.34375,-5 0.73175,-2.0354 5.9284,-10.91343 3.375,-13.46875 -0.19208,-0.19208 -0.39129,-0.26807 -0.625,-0.21875 -3.50569,0.73983 -11.35439,27.03802 -12.84375,30.53125 -5.61515,13.16749 -14.20791,25.88499 -20.57793,38.625 -1.34396,2.68791 -8.63289,13.32056 -9.64082,15.40625 -0.0261,0.0539 -0.0452,0.0795 -0.0625,0.125 -0.0493,-0.0178 -0.0973,-0.0631 -0.15625,-0.0625 -8.52518,16.29571 -18.23431,35.03914 -22.13465,42.16628 -1.44433,2.81447 -3.94618,9.29038 -6.83796,12.64236 -1.29883,-0.75781 -2.57423,-0.97981 -4.55864,-1.21489 -2.73119,-0.32387 -4.89233,-0.063 -6.625,0.625 -6.25452,-11.10892 -12.32823,-25.78503 -19.59375,-36.5625 -0.87371,-1.7072 -2.29868,-4.60887 -4.875,-7.5 -3.89788,-7.59123 -7.79763,-15.51006 -12.625,-22.53125 -3.23932,-6.11019 -18.22338,-28.98071 -23.0625,-43.5 -1.35806,-4.07603 -11.14822,-29.08921 -13.75,-28.65625 -0.0839,0.014 -0.18158,0.0566 -0.25,0.125 -2.53413,2.53413 2.62592,11.47186 3.375,13.46875 1.02058,2.72284 3.375,-2.12293 3.375,5 0,3.12916 2.06171,5.67081 3.375,8.46875 5.66136,12.07181 14.78583,32.3617 22.25,43.03125 6.76929,7.86029 10.37888,19.83603 14.8125,27.90625 17.80582,34.66277 16.6386,34.39358 24.0625,42.65625 -5.74584,5.75444 -3.59781,19.4726 -7.09375,27.375 -4.09389,-10.12434 -8.97194,-24.88448 -13.15625,-35.34375 C 202.10837,397.8344 166.97349,362.13544 128.3125,336.1875 111.4331,324.8591 67.775437,303.37585 35.75,303.84375 z M 124.9375,353 c 12.88636,4.54643 29.70922,15.67038 36.15625,28.5625 2.22989,4.45785 11.78181,12.65681 16.0625,16.9375 5.74033,5.74032 9.79994,14.13531 16.71875,17.59375 3.94563,1.97377 10.589,15.17222 12.71875,19.4375 3.59516,7.19418 8.22834,14.90332 12.59375,21.8125 4.39245,6.95088 8.73688,14.5412 13,21.21875 -2.41403,5.71638 -0.10564,6.59792 -9.625,5.6875 -6.68003,-0.63738 -13.31298,-5.80215 -20.1875,-6.71875 7.78793,4.17977 18.08158,12.35721 21.0625,19.8125 -2.62022,0.22191 -4.80974,0.375 -5.9375,0.375 -22.4375,0 -44.25815,0.4384 -65.625,3.375 -10.94532,1.50392 -22.98823,4.79997 -33.65625,3.375 -8.71928,-1.16501 -25.542701,-5.72577 -30.3125,-13.46875 3.654855,-4.22677 11.912201,-4.3988 16.84375,-6.75 5.25313,-2.50525 12.50677,-6.60257 16.8125,-10.09375 -7.75839,-1.3595 -12.99717,2.4815 -20.1875,3.375 -5.436068,0.6759 -11.320588,0 -16.8125,0 16.98025,-16.98026 33.98403,-20.1875 57.21875,-20.1875 -5.29165,-5.81542 -25.3818,-7.77251 -33.65625,-6.75 -11.224679,1.38795 -21.086966,3.3683 -33.625,3.375 14.257641,-7.13105 37.82019,-19.38742 53.78125,-16.8125 -10.50049,-4.57531 -24.45448,-6.75 -37,-6.75 7.142183,-4.7621 17.70941,-10.92756 26.90625,-10.09375 -5.17033,-5.70952 -16.11607,-3.34375 -23.5625,-3.34375 5.39948,-1.31137 8.80679,-3.64202 13.46875,-6.75 -6.52982,1.12072 -10.320336,-0.91359 -13.46875,-3.34375 3.614418,-2.79024 7.89597,-3.2203 13.46875,-6.75 -3.31401,0.41787 -6.78165,-0.41786 -10.09375,0 4.66197,-3.10797 8.06926,-5.40546 13.46875,-6.71875 -3.97451,-3.06945 -10.41213,-3.82495 -16.84375,-6.75 5.170331,-5.70951 16.11606,-3.34375 23.5625,-3.34375 -5.51502,-6.08886 -18.914861,-3.375 -26.90625,-3.375 5.235804,-8.19743 20.8957,-11.03154 30.28125,-10.09375 l -6.71875,0 c 2.46097,0 15.39909,1.60983 16.8125,0 3.66448,-4.17286 -5.47286,-13.30829 -6.71875,-16.84375 z m 245.03125,3.28125 c 0.24915,0.008 0.47117,0.0205 0.6875,0.0625 -2.47829,1.58287 -11.42435,13.46875 -5.03125,13.46875 l 15.15625,0 c -3.51042,0.85497 -3.54767,1.68622 -6.75,3.375 12.82666,0 20.28572,0.0329 30.3125,6.71875 -9.98057,0 -18.61297,-0.4108 -26.9375,3.375 8.91762,0 15.67701,4.09133 23.5625,3.375 -3.97451,3.06946 -10.41213,3.79564 -16.84375,6.71875 5.92518,0.58732 7.54357,6.16269 13.46875,6.75 -5.27432,-0.36009 -6.04606,0.50728 -10.09375,3.34375 4.83143,-0.59117 7.94282,1.22407 10.09375,3.375 5.56509,5.56509 1.83577,-0.0989 -3.375,3.375 -2.79819,1.86486 -4.65179,1.39795 -5.40625,1 0.38001,0.32654 1.05139,0.96395 2.0625,2.34375 1.37105,1.87173 6.53132,4.35836 10.09375,6.75 l -23.5625,0 c 4.0554,1.84476 9.49809,1.52832 13.46875,3.375 4.18056,1.94489 8.69702,6.24697 13.46875,6.71875 -10.50242,-1.19389 -28.33892,2.93103 -37.03125,6.71875 7.3386,5.43029 18.47197,3.47834 26.90625,6.75 9.18291,3.61361 18.05682,9.05297 26.875,13.46875 -6.42139,0.55902 -10.40282,-2.59 -16.75,-3.375 -5.40141,-0.66819 -11.38457,0 -16.84375,0 -11.84458,0 -23.63909,-0.99042 -33.65625,3.375 21.63452,0 41.53829,4.50897 57.21875,20.1875 -5.57664,0 -11.28637,0.3678 -16.84375,0 -7.58508,-0.50259 -13.18203,-4.01046 -20.1875,-3.375 7.39444,9.31622 22.52029,15.35716 33.65625,16.84375 -15.60536,19.65304 -43.6259,13.51753 -63.9375,10.09375 -21.45736,-3.61634 -43.2226,-3.375 -65.65625,-3.375 -0.93585,0 -2.66924,-0.11489 -4.6875,-0.28125 0.52606,-1.36408 1.22658,-2.89122 2.125,-4.6875 5.56814,-7.52017 9.23723,-8.60113 17.71875,-15.21875 -8.30459,2.98258 -30.3125,18.81883 -30.3125,1.75 0,-0.0944 0.002,-0.187 0,-0.28125 13.07795,-20.62775 28.32056,-45.39138 43.78125,-65.4375 5.06635,-6.57026 9.03658,-12.38033 15.15625,-18.5 4.57916,-4.57724 11.45398,-11.18728 14.25,-16.78125 3.18434,-6.37055 26.12015,-22.23571 33.84375,-22 z m 18.84375,54.9375 c -0.4962,-0.42638 -0.48422,-0.25541 0,0 z m -164.53125,89.8125 c 0.14439,4.31313 -3.04456,8.05291 -11.8125,10.15625 11.91695,0.91084 8.99506,-1.09676 18.5,8.40625 4.13211,4.13108 5.28231,9.32309 5.46875,14.875 -6.90242,10.34144 -13.85356,20.32495 -16.90625,32.53125 -3.59323,14.3768 -4.8523,28.75392 -8.1875,43.53125 -1.96245,8.69507 -7.71452,28.9382 -12.34375,35.28125 -9.21609,12.62832 -10.09375,-1.80517 -10.09375,-13.46875 -1.91601,5.43222 -10.60533,22.63862 -13.46875,13.46875 -3.16767,10.14425 -6.11025,-14.94377 -16.84375,-3.34375 0,-9.0447 4.71523,-18.6226 3.375,-26.9375 -6.5491,4.36349 -17.75543,10.91235 -20.1875,16.8125 -1.76966,-10.96649 8.21111,-18.62538 6.71875,-30.28125 -6.08694,6.49902 -4.73727,0.23878 -6.71875,0 1.59057,0.19256 -3.375,-8.02669 -3.375,-1.6875 0,2.81665 -5.9198,3.77985 -9.9375,5.5 6.99877,-7.4644 6.95607,-19.53462 13.3125,-27.375 -15.8191,-2.39742 -29.65478,21.69785 -43.78125,26.9375 9.2392,-9.23535 13.75439,-17.24 20.21875,-26.9375 -1.03086,-1.06325 -2.09139,-1.96942 -3.21875,-2.46875 8.11266,-3.9723 15.1804,-11 1.53125,-11 -4.72047,0 -11.05681,-0.95681 -16.5,-0.375 10.99787,-5.37993 24.37636,-13.93803 28.28125,-19.8125 3.29283,-4.95273 2.1811,-2.68947 -6.75,-3.375 -3.27428,-0.25211 -6.71644,-0.56451 -9.84375,-0.0937 8.08274,-3.10843 17.72791,-4.92084 23.3125,-10 -2.23566,0.13287 -4.48309,-0.13287 -6.71875,0 3.66448,-4.04576 18.17843,-7.20786 23.5625,-6.71875 -4.41933,-4.87956 -10.56426,-3.375 -16.84375,-3.375 7.70446,-3.50273 28.36612,-5.13352 10.09375,-16.8125 13.26379,0 23.16667,-3.375 37.03125,-3.375 l 37.03125,0 c 0.73882,0 2.96162,-0.0284 5.09375,-0.0625 z m 48.125,0 c 1.49617,0.0189 3.44946,0.0625 4.03125,0.0625 l 37,0 c 10.47545,0 28.36588,0.35645 37.03125,6.71875 -7.05553,1.6599 -5.73583,7.25344 -3.375,10.09375 1.82358,2.19522 6.75,-2.87818 6.75,1.6875 0,1.13998 4.80083,3.77425 6.71875,5.0625 l -13.46875,0 c 3.93022,4.34038 17.67391,5.93309 23.5625,6.71875 -5.27431,-0.36009 -6.04606,0.53854 -10.09375,3.375 8.90993,-1.30943 23.93094,5.4857 30.3125,10.09375 -9.23535,-4.19981 -17.70215,-4.19981 -26.9375,0 4.83335,7.85082 12.46698,5.74823 18.5,11.78125 6.01953,6.01954 14.3982,8.47878 21.90625,11.78125 -8.804,-1.17464 -15.83171,-3.375 -25.25,-3.375 -17.64075,0 -0.71163,11.77612 8.40625,13.46875 -3.2909,-0.41594 -6.77588,0.15405 -10.09375,0 6.46436,9.6975 10.95023,17.70215 20.1875,26.9375 -7.19417,-2.66893 -14.00235,-9.06097 -20.1875,-13.46875 -5.73647,-4.08812 -14.17931,-7.42931 -18.53125,-11.78125 -6.46436,-6.46436 -0.0764,9.13543 1.6875,11.78125 3.84166,5.7615 6.25211,11.08225 10.09375,16.84375 -4.60227,-2.04695 -10.64084,-6.00992 -16.8125,-10.125 2.58806,10.05567 -6.75,3.08805 -6.75,11.71875 0,8.01257 8.17883,13.0738 6.75,21.9375 -6.81289,-6.80327 -12.92978,-11.9753 -20.1875,-16.8125 -1.34024,8.31489 3.34375,17.89278 3.34375,26.9375 -11.15521,-12.05641 -8.27147,5.5974 -13.46875,10.09375 -2.95778,-8.19936 -4.05624,2.66251 -8.40625,-1.6875 -4.35964,-4.35963 -1.26599,-10.76195 -8.40625,-15.15625 0,7.1287 1.10788,14.07938 -3.375,20.1875 -2.09958,-1.75566 -6.12411,-1.66013 -10.53125,-18.40625 l -2.4375,-8.625 c -9.27964,-18.56698 -6.03099,-25.41672 -10.9375,-45.03125 -4.97032,-19.87491 -9.12573,-33.90289 -19.3125,-49.28125 0.26051,-4.56567 0.82786,-8.99986 2.8125,-13.28125 4.19211,-9.04086 9.11665,-12.43234 20.21875,-6.71875 -7.93975,-6.22058 -11.49979,-8.4352 -10.75,-13.53125 z"
       transform="translate(0,-524.758)"
       id="path5"
       inkscape:connector-curvature="0"
       sodipodi:nodetypes="sccssccccscccccccssccssscsccccscccscccscsscscccccsscssssssscscccscccccsccccccsccscsccccccccccccccscccccccsccscccccccsccccccccccccccccccccccccccccsccccccccscccccccccccsccccccscccsccccccccccccsscccccccscccccscccccccccsscccsccsccccccscscccsscccsccccscccccccccc" /></g><g
     inkscape:groupmode="layer"
     id="layer2"
     inkscape:label="Head Thorax Abdomen"
     style="display:inline"
     transform="translate(0,524.758)" /><g
     inkscape:groupmode="layer"
     id="layer3"
     inkscape:label="Antennae"
     style="display:inline"
     transform="translate(0,524.758)" /></svg>