<?xml version="1.0" encoding="UTF-8" standalone="no"?>
<!-- Generator: Adobe Illustrator 12.0.0, SVG Export Plug-In . SVG Version: 6.00 Build 51448)  -->

<svg
   xmlns:dc="http://purl.org/dc/elements/1.1/"
   xmlns:cc="http://creativecommons.org/ns#"
   xmlns:rdf="http://www.w3.org/1999/02/22-rdf-syntax-ns#"
   xmlns:svg="http://www.w3.org/2000/svg"
   xmlns="http://www.w3.org/2000/svg"
   xmlns:sodipodi="http://sodipodi.sourceforge.net/DTD/sodipodi-0.dtd"
   xmlns:inkscape="http://www.inkscape.org/namespaces/inkscape"
   id="Layer_1"
   sodipodi:docname="ButterflySource.svg"
   xml:space="preserve"
   viewBox="0 0 1080 1080"
   sodipodi:version="0.32"
   version="1.1"
   inkscape:output_extension="org.inkscape.output.svg.inkscape"
   inkscape:version="0.48.5 r10040"
   width="100%"
   height="100%"><defs
     id="defs3067" /><sodipodi:namedview
     id="base"
     bordercolor="#666666"
     inkscape:pageshadow="2"
     inkscape:window-width="1440"
     pagecolor="#ffffff"
     inkscape:zoom="3.0048262"
     inkscape:window-x="0"
     borderopacity="1.0"
     inkscape:current-layer="layer1"
     inkscape:cx="840.65514"
     inkscape:cy="373.52766"
     inkscape:window-y="0"
     inkscape:window-height="851"
     inkscape:pageopacity="0.0"
     showgrid="false"
     inkscape:window-maximized="1"
     inkscape:document-units="in"
     showguides="true"
     inkscape:guide-bbox="true"
     units="in"
     inkscape:snap-global="false"><sodipodi:guide
       orientation="1,0"
       position="540,0 "
       id="guide3101" /><sodipodi:guide
       orientation="0,1"
       position="306.56516,277.29512"
       id="guide3273" /></sodipodi:namedview><path
     id="path21"
     style="stroke-width:0;stroke-miterlimit:10"
     d="M 387.47911,718.47616 H 370.64905"
     inkscape:connector-curvature="0" /><path
     id="path25"
     style="fill-rule:evenodd;stroke:#3f3f3f;stroke-width:1.9256357"
     d="M 246.11819,822.82829"
     inkscape:connector-curvature="0" /><line
     id="line27"
     style="stroke-width:0;stroke-miterlimit:10"
     y2="822.82837"
     y1="822.82837"
     x2="246.11819"
     x1="246.11819" /><metadata
     id="metadata3065"><rdf:RDF><cc:Work><dc:format>image/svg+xml</dc:format><dc:type
           rdf:resource="http://purl.org/dc/dcmitype/StillImage" /><cc:license
           rdf:resource="http://creativecommons.org/licenses/publicdomain/" /><dc:publisher><cc:Agent
             rdf:about="http://openclipart.org/"><dc:title>Openclipart</dc:title></cc:Agent></dc:publisher><dc:title /><dc:date>2009-06-03T19:24:03</dc:date><dc:description>Black and white butterfly by Francesco 'Architetto' Rollandin. From OCAL 0.18 release.</dc:description><dc:source>https://openclipart.org/detail/26451/architetto----farfalla-02-by-anonymous</dc:source><dc:creator><cc:Agent><dc:title>Anonymous</dc:title></cc:Agent></dc:creator><dc:subject><rdf:Bag><rdf:li>animal</rdf:li><rdf:li>butterfly</rdf:li><rdf:li>insect</rdf:li><rdf:li>outline</rdf:li></rdf:Bag></dc:subject></cc:Work><cc:License
         rdf:about="http://creativecommons.org/licenses/publicdomain/"><cc:permits
           rdf:resource="http://creativecommons.org/ns#Reproduction" /><cc:permits
           rdf:resource="http://creativecommons.org/ns#Distribution" /><cc:permits
           rdf:resource="http://creativecommons.org/ns#DerivativeWorks" /></cc:License></rdf:RDF></metadata><g
     inkscape:groupmode="layer"
     id="layer2"
     inkscape:label="Lower"
     style="display:inline"
     sodipodi:insensitive="true"><g
       id="g3263"
       transform="translate(-0.43939738,0.61955787)"
       style="fill:#ffff00"><path
         inkscape:connector-curvature="0"
         d="M 387.47911,718.47616 H 370.64905"
         style="fill:#ffff00;stroke-width:0;stroke-miterlimit:10"
         id="path21-8" /><path
         inkscape:connector-curvature="0"
         d="M 246.11819,822.82829"
         style="fill:#ffff00;fill-rule:evenodd;stroke:#3f3f3f;stroke-width:1.9256357"
         id="path25-4" /><line
         x1="246.11819"
         x2="246.11819"
         y1="822.82837"
         y2="822.82837"
         style="fill:#ffff00;stroke-width:0;stroke-miterlimit:10"
         id="line27-0" /><g
         transform="translate(0,839.758)"
         style="fill:#ffff00;display:inline"
         inkscape:label="Background"
         id="layer1-7"><path
           sodipodi:nodetypes="sccssccccscccccccscccscscsccccscccscccscsscscccccscsscscccscccsccccscscscccsccccccccscccssccscccccccsccccccccccccccsccccsccccccscccccccccsccccccsccccsccccccccccccccscccccccs"
           inkscape:connector-curvature="0"
           id="path5-3"
           transform="translate(0,-839.758)"
           d="m 38.96875,534.6875 c -15.886968,0.23211 -29.1657548,5.39336 -35.875,18.8125 -9.2826111,18.56523 8.693767,46.51754 15.65625,64.1875 7.834634,19.93754 14.6875,39.08286 14.6875,60.75 0,6.0441 3.6875,11.48424 3.6875,18.34375 0,4.6907 -1.141221,10.46755 0.96875,14.6875 5.718358,11.43461 4.736275,21.32736 12.5625,33.0625 12.86578,19.29446 43.244037,58.4375 63.625,58.4375 -17.363116,7.89558 -28.278592,7.45825 -36.75,25.71875 -4.129576,8.90222 -11,17.63051 -11,27.5625 0,10.3439 4.520537,14.80268 -0.96875,25.78125 -6.392959,12.78802 -4.768995,11.69563 4.625,20.125 3.894198,3.4949 4.191402,-1.29111 7.34375,3.6875 1.586681,2.50507 -0.903673,8.11455 0,11 0.451837,1.44588 6.845679,1.6422 7.34375,7.34375 0.41611,4.75375 -2.204745,9.5506 -5.5,12.84375 -7.235686,7.23568 6.255818,17.81456 9.1875,20.21875 19.05278,15.62303 15.8985,33.08364 7.90625,57.0625 -6.250054,18.7523 -28.462264,37.0197 -15.28125,56.8437 18.058744,27.1612 19.58686,-26.9859 22.0625,-36.75 3.20699,-12.6364 12.0253,-24.8217 24,-28.8124 10.95756,-3.6527 19.63242,3.0937 29.34375,3.0937 6.82167,0 11.39706,3.6558 18.21875,3.6563 5.18454,0 9.05531,-3.6563 14.6875,-3.6563 7.96492,0 13.37177,-11.43218 16.625,-14.6875 3.20488,-3.20279 14.6875,-9.27665 14.6875,-16.53125 0,-9.30992 2.6405,-23.5265 4.9375,-32.71875 6.15549,-24.64505 12.18446,-49.84727 20.21875,-73.9375 3.03886,-9.11659 4.42185,-18.06662 7.90625,-27.4375 0.96078,-2.58573 2.37845,-4.81001 3.9375,-6.9375 -0.14377,2.83362 -0.25,5.6916 -0.25,8.5 0,11.70571 0.63929,54.78093 11,57.21875 16.94492,-2.03852 10.08788,-40.32237 13.40625,-53.59375 0.86045,-3.4418 1.23587,-6.83491 1.4375,-10.1875 1.4605,2.39271 3.19885,4.66761 5.375,6.84375 4.12958,4.12957 5.10211,22.3459 6.78125,29.0625 6.21223,24.83839 14.16278,49.2782 20.375,74.125 2.49246,9.96983 1.39141,21.56688 4.0625,30.90625 3.2238,11.27909 12.85094,9.19469 20.1875,16.53125 3.17127,3.17127 -0.0832,8.20795 3.75,10.12505 4.28718,2.1457 9.90434,6.4062 14.6875,6.4062 11.62375,0 22.1817,-3.6875 32.9375,-3.6875 10.79994,0 19.71425,-7.9355 31.28125,0 10.01817,6.8742 14.71875,23.7229 14.71875,35.25 0,5.0774 1.2686,27.2477 3.6875,30.875 2.95166,4.4259 7.74188,6.2578 12.15625,5.125 5.4394,0.4497 52.03146,0.1252 86.5625,0.031 23.10095,0.011 58.91413,0.1308 87.6875,0.031 4.64836,0.1676 9.07959,-0.7616 12.03125,-5.1875 2.4189,-3.6273 3.6875,-25.7976 3.6875,-30.875 0,-11.5271 4.70058,-28.3758 14.71875,-35.25 11.567,-7.9355 20.48131,0 31.28125,0 10.7558,0 21.31375,3.6875 32.9375,3.6875 4.78316,0 10.40032,-4.2606 14.6875,-6.4062 3.83316,-1.9167 0.57873,-6.95378 3.75,-10.12505 7.33656,-7.33656 16.9637,-5.25216 20.1875,-16.53125 2.67109,-9.33937 1.57004,-20.93642 4.0625,-30.90625 6.21222,-24.8468 14.16277,-49.28661 20.375,-74.125 1.67914,-6.7166 2.65167,-24.93293 6.78125,-29.0625 2.17615,-2.17614 3.9145,-4.45104 5.375,-6.84375 0.20163,3.35259 0.57705,6.7457 1.4375,10.1875 3.31837,13.27138 -3.53867,51.55523 13.40625,53.59375 10.36071,-2.43782 11,-45.51304 11,-57.21875 0,-2.8084 -0.10623,-5.66638 -0.25,-8.5 1.55905,2.12749 2.97672,4.35177 3.9375,6.9375 3.4844,9.37088 4.89864,18.32091 7.9375,27.4375 8.03429,24.09023 14.03201,49.29245 20.1875,73.9375 2.297,9.19225 4.9375,23.40883 4.9375,32.71875 0,7.2546 11.48262,13.32846 14.6875,16.53125 3.25323,3.25532 8.66008,14.6875 16.625,14.6875 5.63219,0 9.50296,3.6562 14.6875,3.6563 6.82169,-10e-5 11.39708,-3.6563 18.21875,-3.6563 9.71133,0 18.41744,-6.7464 29.375,-3.0937 11.9747,3.9908 20.76176,16.1761 23.96875,28.8124 2.47564,9.7642 4.00376,63.9107 22.0625,36.75 13.1811,-19.8237 -9.03119,-38.0914 -15.28125,-56.8437 -7.99225,-23.97886 -11.14653,-41.43947 7.90625,-57.0625 2.93169,-2.40419 16.4232,-12.98307 9.1875,-20.21875 -3.29523,-3.29315 -5.91611,-8.09 -5.5,-12.84375 0.49807,-5.70155 6.8919,-5.89787 7.3437,-7.34375 0.904,-2.88545 -1.5866,-8.49493 0,-11 3.1523,-4.97861 3.4496,-0.1926 7.3438,-3.6875 9.394,-8.42937 11.0179,-7.33698 4.625,-20.125 -5.4893,-10.97857 -0.9688,-15.43735 -0.9688,-25.78125 10e-5,-9.93199 -6.8703,-18.66028 -11,-27.5625 -8.47106,-18.2605 -19.38683,-17.82317 -36.74995,-25.71875 20.38096,0 50.75955,-39.14304 63.62495,-58.4375 7.8265,-11.73514 6.8438,-21.62789 12.5626,-33.0625 2.1096,-4.21995 0.9687,-9.9968 0.9687,-14.6875 0,-6.85951 3.6875,-12.29965 3.6875,-18.34375 0,-21.66714 6.8529,-40.81246 14.6875,-60.75 6.9625,-17.66996 24.9384,-45.62227 15.6563,-64.1875 -6.7095,-13.41914 -19.9885,-18.58039 -35.875,-18.8125 -34.9517,-0.51065 -82.60977,22.94912 -101.0313,35.3125 -42.19311,28.31858 -80.53357,67.25685 -99.71875,115.21875 -4.5666,11.41485 -9.87583,27.54444 -14.34375,38.59375 -3.81533,-8.62437 -0.67197,-21.80627 -6.125,-28.25 8.10216,-9.01756 6.03617,-10.85789 25.46875,-48.6875 4.83868,-8.80753 10.23726,-21.39034 17.625,-29.96875 8.14611,-11.64434 17.60266,-34.10655 23.78125,-47.28125 1.43327,-3.05357 2.92971,-5.88836 3.53125,-9.25 0.98131,-5.48397 2.41743,-3.62215 3.53125,-6.59375 0.81752,-2.17933 4.95316,-10.4531 2.1875,-13.21875 -0.0747,-0.0746 -0.1584,-0.14095 -0.25,-0.15625 -2.83948,-0.47252 -16.64286,23.89533 -18.125,28.34375 -5.28123,15.8458 -19.68348,40.95657 -23.21875,47.625 -5.26841,7.66265 -9.996,16.96522 -14.25,25.25 -2.8117,3.15527 -4.04646,6.32433 -5,8.1875 -7.92931,11.76211 -13.23656,29.90741 -20.0625,42.03125 -1.89097,-0.7508 -2.64429,-1.25971 -5.625,-0.90625 -2.16571,0.25656 -3.33251,0.048 -4.75,0.875 -3.15598,-3.65822 -6.11122,-10.0534 -7.6875,-13.125 -4.25669,-7.77829 -10.00844,-21.84049 -19.3125,-39.625 0.95787,2.08459 -0.71927,-1.28925 -2.53125,-4.5 -1.72771,-3.5539 -2.33429,-4.37283 -5.34375,-8.40625 -1.10002,-2.27624 -4.09576,-9.25402 -5.5625,-12.1875 -6.952,-13.90396 -16.96559,-27.62951 -23.09375,-42 -1.62543,-3.81238 -13.33027,-30.84883 -17.15625,-31.65625 -0.25506,-0.0538 -1.32162,0.35287 -1.53125,0.5625 -2.78668,2.78877 2.57639,12.49739 3.375,14.71875 1.03396,2.88125 2.79695,2.24767 3.625,7.28125 0.62359,3.79072 1.57495,6.38741 2.78125,10 2.07214,6.21643 7.97037,14.59901 10.90625,21.4375 3.45286,8.04059 7.56424,14.76824 12.40625,22.03125 5.18102,7.87987 7.66345,13.6462 11.5,19.03125 8.55736,16.30816 19.18084,36.47937 24.625,47.1875 1.82309,3.77362 5.95767,12.54636 7.09375,14.8125 -1.39539,1.56639 -2,4.95814 -2,10.25 0,6.07342 -2.53745,10.52174 -3.15625,15.875 -5.17737,-11.39164 -10.54364,-24.26793 -14.6875,-34.625 -19.55085,-48.87479 -56.1239,-89.67741 -99.71875,-118.9375 -26.55329,-17.81916 -117.16508,-58.01568 -138,-16.34375 -0.94753,2.15928 -1.13057,3.01974 -2.03125,5.28125 -0.90068,-2.26151 -1.45872,-3.24697 -2.40625,-5.40625 -20.83492,-41.67193 -110.32171,-1.35041 -136.875,16.46875 -43.59485,29.26009 -80.1679,70.06351 -99.71875,118.9375 -4.14386,10.35707 -9.51013,23.23336 -14.6875,34.625 -0.6188,-5.35326 -3.125,-9.80158 -3.125,-15.875 0,-5.29186 -0.63586,-8.68361 -2.03125,-10.25 1.13608,-2.26614 5.27066,-11.03888 7.09375,-14.8125 5.44416,-10.70813 16.09889,-30.87934 24.65625,-47.1875 3.83655,-5.38505 6.28773,-11.15138 11.46875,-19.03125 4.84201,-7.26301 8.95339,-13.99066 12.40625,-22.03125 2.93588,-6.83849 8.83411,-15.22107 10.90625,-21.4375 1.2063,-3.61259 2.15766,-6.20928 2.78125,-10 0.82805,-5.03358 2.62229,-4.4 3.65625,-7.28125 0.79861,-2.22136 6.13043,-11.92998 3.34375,-14.71875 -0.20963,-0.20963 -1.27619,-0.61633 -1.53125,-0.5625 -3.82598,0.80742 -15.53082,27.84387 -17.15625,31.65625 -6.12816,14.37049 -16.14175,28.09604 -23.09375,42 -1.46674,2.93348 -4.46248,9.91126 -5.5625,12.1875 -3.00946,4.03342 -3.61604,4.85235 -5.34375,8.40625 -1.81198,3.21075 -3.48912,6.58459 -2.53125,4.5 -9.30406,17.78451 -15.05581,31.84671 -19.3125,39.625 -1.57628,3.0716 -4.53152,9.46678 -7.6875,13.125 -1.41749,-0.82705 -2.58429,-0.61844 -4.75,-0.875 -2.98071,-0.35346 -3.70278,0.15545 -5.59375,0.90625 -6.82594,-12.12384 -12.16444,-30.26914 -20.09375,-42.03125 -0.95354,-1.86317 -2.1883,-5.03223 -5,-8.1875 -4.254,-8.28478 -8.98159,-17.58735 -14.25,-25.25 -3.53527,-6.66843 -17.93752,-31.7792 -23.21875,-47.625 -1.48214,-4.44842 -15.28552,-28.81627 -18.125,-28.34375 -0.0916,0.0153 -0.17533,0.0816 -0.25,0.15625 -2.76566,2.76565 1.40123,11.03942 2.21875,13.21875 1.11382,2.9716 2.51869,1.10978 3.5,6.59375 0.60154,3.36164 2.09798,6.19643 3.53125,9.25 6.17859,13.1747 15.63514,35.63691 23.78125,47.28125 7.38774,8.57841 12.81757,21.16122 17.65625,29.96875 19.43258,37.82961 17.33534,39.66994 25.4375,48.6875 -5.45303,6.44373 -2.30967,19.62563 -6.125,28.25 -4.46792,-11.04931 -9.77715,-27.1789 -14.34375,-38.59375 C 220.53357,637.25775 182.19311,598.31858 140,570 121.57847,557.63662 73.920079,534.17685 38.96875,534.6875 z"
           style="fill:#ffff00;stroke-width:0;stroke-miterlimit:10;display:inline" /></g><g
         transform="translate(0,315)"
         inkscape:label="Text"
         id="layer2-4"
         style="fill:#ffff00"><text
           transform="translate(0,-315)"
           sodipodi:linespacing="125%"
           id="text3093"
           y="790.60602"
           x="576.55756"
           style="font-size:64px;font-style:normal;font-weight:normal;line-height:125%;letter-spacing:0px;word-spacing:0px;fill:#ffff00;fill-opacity:1;stroke:none;font-family:Sans"
           xml:space="preserve"><tspan
             y="790.60602"
             x="576.55756"
             id="tspan3095"
             sodipodi:role="line" /></text>
</g></g></g><g
     inkscape:groupmode="layer"
     id="layer1"
     inkscape:label="Upper"
     style="opacity:1;display:inline"
     transform="translate(0,839.758)"><path
       style="stroke-width:0;stroke-miterlimit:10;display:inline"
       d="m 1077.5977,-284.30268 c 9.2828,18.5656 -9.1626,47.9286 -16.1252,65.59891 -7.8348,19.93794 -14.6995,39.07474 -14.6995,60.74231 0,6.04421 -3.6835,11.48922 -3.6835,18.34887 0,4.69079 1.1551,10.44544 -0.9549,14.66547 -5.7185,11.43483 -4.7587,21.34718 -12.585,33.082548 -12.8661,19.294848 -43.22585,56.43896 -63.60723,56.43896 17.36347,7.895731 28.2603,7.454856 36.73193,25.715716 4.1296,8.9024028 11.0161,17.6252395 11.0161,27.557427 0,10.344109 -4.5344,14.805138 0.955,25.783929 6.393,12.788272 4.7899,11.69284 -4.6043,20.122378 -3.8943,3.49497 -4.2144,-1.295286 -7.3668,3.683419 -1.5868,2.505116 0.9036,8.130641 0,11.016149 -0.4519,1.445908 -6.8347,1.631072 -7.33279,7.332731 -0.41611,4.753847 2.19571,9.564642 5.49099,12.857858 7.2359,7.235825 -6.24266,17.820455 -9.1744,20.224695 -19.05318,15.62334 -15.90494,33.07954 -7.91253,57.05888 6.25018,18.75263 28.46063,36.99569 15.27933,56.82014 -18.05907,27.16117 -19.59068,-26.9678 -22.06637,-36.73187 -3.20706,-12.63696 -12.00139,-24.82838 -23.97633,-28.81933 -10.95778,-3.6526 -19.6535,3.10361 -29.36503,3.10361 -6.82181,0 -11.39064,3.64932 -18.21246,3.64932 -5.18464,0 -9.06726,-3.64932 -14.69956,-3.64932 -7.96509,0 -13.3562,-11.44417 -16.6095,-14.69956 -3.20494,-3.20285 -14.69956,-9.28654 -14.69956,-16.54128 0,-9.31011 -2.64829,-23.51497 -4.94533,-32.70739 -6.15561,-24.64554 -12.15615,-49.850501 -20.19059,-73.941214 -3.03893,-9.116772 -4.42806,-18.049939 -7.91253,-27.4210035 -0.9608,-2.5857815 -2.39718,-4.8300364 -3.95627,-6.957568 0.14379,2.8336783 0.27285,5.6838693 0.27285,8.4923257 0,11.7059468 -0.65523,54.7915418 -11.01615,57.2294078 -16.94525,-2.038561 -10.08512,-40.308449 -13.40355,-53.580095 -0.86047,-3.4418736 -1.23081,-6.8449593 -1.43244,-10.1976121 -1.46053,2.3927595 -3.21252,4.6790654 -5.38871,6.8552509 -4.12966,4.1296522 -5.10786,22.3413452 -6.78703,29.0580782 -6.21235,24.838889 -14.14878,49.264449 -20.36112,74.11174 -2.49252,9.97003 -1.38744,21.56024 -4.05858,30.89979 -3.22386,11.27932 -12.85389,9.20457 -20.19059,16.54127 -3.17134,3.17134 0.0816,8.21276 -3.75163,10.1294 -4.28727,2.14576 -9.91632,6.41189 -14.69957,6.41189 -11.62398,0 -22.15601,-3.68343 -32.91203,-3.68343 -10.80015,0 -19.74182,-7.93566 -31.30905,0 -10.01837,6.87436 -14.69957,23.70392 -14.69957,35.23122 0,5.07749 -1.26447,27.27241 -3.68342,30.89979 -5.90341,8.85197 -19.18672,3.47255 -22.0323,-3.68342 -7.69818,-19.35158 13.08542,-44.48558 21.11145,-60.53766 4.69498,-9.39208 6.04388,-20.88508 4.60427,-31.30906 -0.36146,-2.61229 -2.23541,-12.55802 -3.68342,-14.69957 -2.97798,-4.40286 -11.01615,-2.92425 -11.01615,-9.17443 0,-1.20632 -6.93833,-5.13073 -9.17443,-7.36685 -4.65507,-4.65505 0.75727,-7.81399 1.8417,-12.857854 0.98145,-4.566794 3.68342,-6.651336 3.68342,-12.823752 0,-5.785729 -7.36684,-4.128267 -7.36684,-7.366838 0,-3.934207 1.01227,-8.16217 -1.84171,-11.016148 -2.57027,-2.570263 -9.17443,-0.474272 -9.17443,-3.683419 0,-2.883402 -3.68343,-1.555418 -3.68343,-7.332731 0,-5.01233 3.68343,-7.063989 3.68343,-11.084361 0,-6.45193 3.68341,-8.109108 3.68341,-14.563145 0,-4.55838 -3.96712,-6.877646 -3.68341,-12.92607 0.46235,-9.8523311 11.01614,-17.9825032 11.01614,-27.557426 0,-15.486739 26.64836,-16.589844 36.73186,-23.874008 -25.87496,0 -44.93655,-37.192744 -64.3575,-56.609489 -10.37353,-10.369329 -5.9901,-21.206079 -11.83469,-32.912019 -2.55764,-5.11952 -4.60427,-27.08571 -4.60427,-33.01434 0,-21.26196 -6.87738,-40.83168 -14.69956,-60.74231 -6.95632,-17.69761 -23.78172,-46.55474 -16.59582,-64.69172 18.71741,-44.49664 111.95972,-3.46437 138.51353,14.35515 43.59573,29.26067 80.1739,71.69897 99.72515,120.57393 4.14394,10.35728 9.35493,22.68739 14.5324,34.07926 0.61882,-5.35336 2.59892,-8.30628 2.59892,-14.37982 0,-5.29196 -0.81202,-8.0075 2.0739,-11.06444 -1.13609,-2.26619 -5.03283,-12.18436 -6.85597,-15.62683 -5.44426,-10.70834 -15.43215,-29.72207 -23.98967,-46.03056 -3.83662,-5.38514 -6.55862,-13.15697 -11.73975,-21.037 -4.8421,-7.26314 -9.35905,-13.18681 -12.81198,-21.22756 -2.93593,-6.83862 -8.97123,-14.26994 -11.04342,-20.4865 -1.20632,-3.61265 -2.0276,-5.45188 -2.36507,-9.27877 -0.5358,-6.07606 -3.11856,-5.92803 -4.15254,-8.80933 -0.79862,-2.22141 -6.37242,-12.55883 -2.40906,-15.81831 5.04098,1.43741 12.29037,18.61232 18.65295,32.5613 6.12828,14.37078 14.43466,25.00304 21.38679,38.90727 1.46678,2.93354 2.52148,6.29801 3.88942,9.37801 1.90382,3.00583 4.74124,7.09202 4.76014,7.14174 7.22143,15.54374 16.63135,34.52532 25.9679,51.50489 1.57632,3.07167 3.03244,7.95629 6.18848,11.61458 1.41752,-0.82706 2.97964,-0.53354 5.1454,-0.7901 2.98077,-0.35347 3.69214,0.87249 5.58314,1.6234 6.82608,-12.12408 10.46806,-27.50052 18.39752,-39.26287 0.95355,-1.8632 3.51518,-7.37601 6.32694,-10.53134 4.25408,-8.28494 7.7065,-15.0521 12.97501,-22.71491 3.53534,-8.00808 16.40596,-30.35471 23.0268,-46.73663 6.61751,-10.88025 10.26758,-28.40015 20.67727,-32.75322 0.88312,4.88363 -1.99703,12.46232 -2.81456,14.6417 -1.11385,2.97166 -3.91874,1.49885 -3.91874,9.2727 0,3.41511 -4.26303,6.96015 -5.69633,10.01378 -8.32193,17.99721 -15.06539,34.18224 -23.21166,45.82681 -6.04838,8.84649 -12.43152,21.08034 -17.27029,29.88804 -19.43298,37.83036 -15.2049,37.46414 -23.30722,46.48187 6.27092,6.2803 1.91368,18.97127 5.72909,27.59582 4.46801,-11.04954 9.79183,-25.27592 14.35852,-36.69099 18.47959,-50.3161 57.53118,-89.27734 99.72513,-117.59648 18.4219,-12.36363 65.14956,-34.49044 100.31516,-34.82878 19.1333,0.14278 30.1954,5.88973 37.0559,19.297 z m -133.68763,36.23388 c -14.06395,4.9619 -32.42414,17.10239 -39.46032,31.17264 -2.43366,4.86522 -12.85847,13.81343 -17.53034,18.4853 -6.2649,6.26489 -12.35949,10.43508 -18.24656,19.20153 -17.53655,16.65278 -20.91961,47.60066 -31.61835,65.53992 -2.69014,5.90596 -7.41761,13.16626 0.30929,8.84466 7.29047,-0.69562 14.52956,-6.33237 22.0323,-7.33273 -8.49962,4.56173 -19.73394,13.48645 -22.98726,21.623031 2.85966,0.24219 5.24927,0.409269 6.48009,0.409269 24.48791,0 48.30259,0.478462 71.62202,3.683418 11.94554,1.641353 25.08897,5.238607 36.73187,3.683419 9.51607,-1.271473 27.87688,-6.24901 33.08256,-14.699568 -3.98885,-4.613029 -13.00079,-4.800779 -18.383,-7.366839 -5.73318,-2.73418 -13.64968,-7.20593 -18.34887,-11.01615 8.46737,-1.48373 14.18489,2.70827 22.0323,3.68342 5.93283,0.73767 12.3551,0 18.34888,0 -18.53197,-18.53197 -37.08961,-22.0323 -62.44759,-22.0323 5.77521,-6.34684 27.70127,-8.48278 36.73186,-7.36684 12.25043,1.51479 23.01397,3.67612 36.69775,3.68343 -15.56053,-7.78271 -41.2763,-21.15911 -58.69593,-18.34889 11.46005,-4.99342 26.6892,-7.36684 40.38117,-7.36684 -7.79485,-5.19727 -19.32776,-11.92614 -29.36503,-11.01614 5.64282,-6.23128 17.58881,-3.64932 25.71572,-3.64932 -5.8929,-1.4312 -9.61159,-3.97483 -14.69957,-7.36683 7.12654,1.22313 11.26344,-0.99708 14.69957,-3.64931 -3.94471,-3.04523 -8.61753,-3.51459 -14.69957,-7.36684 3.61685,0.45606 7.40138,-0.45605 11.01615,0 -5.08799,-3.39199 -8.80665,-5.89942 -14.69957,-7.33273 4.33771,-3.34995 11.36363,-4.17449 18.38299,-7.36683 -5.64281,-6.23127 -17.5888,-3.64932 -25.71572,-3.64932 6.019,-6.64528 20.64336,-3.68342 29.36503,-3.68342 -5.71427,-8.94654 -22.80522,-12.03964 -33.04844,-11.01615 l 7.33273,0 c -2.68586,0 -16.80631,1.75694 -18.34889,0 -3.99935,-4.55418 5.973,-14.52445 7.33273,-18.38299 z m -267.42299,3.5811 c -0.27192,0.009 -0.51422,0.0224 -0.75032,0.0682 2.70476,1.72752 12.46833,14.69957 5.49101,14.69957 l -16.54127,0 c 3.83121,0.93309 3.87186,1.84031 7.36683,3.68341 -13.99879,0 -22.13949,0.036 -33.08255,7.33273 10.89263,0 20.31388,-0.44834 29.39914,3.68342 -9.73255,0 -17.10963,4.46521 -25.71572,3.68343 4.33771,3.34995 11.36363,4.14249 18.38299,7.33273 -6.46665,0.64098 -8.23293,6.72585 -14.69958,7.36683 5.75631,-0.39299 6.59858,0.55363 11.01616,3.64931 -5.27294,-0.64519 -8.66867,1.33593 -11.01616,3.68342 -6.07364,6.07365 -2.00352,-0.10793 3.68343,3.68342 3.05389,2.03527 5.07688,1.5257 5.90029,1.09138 -0.41474,0.35638 -1.14747,1.05204 -2.25099,2.55794 -1.49633,2.04277 -7.12816,4.75663 -11.01614,7.36683 l 25.71572,0 c -4.426,2.01334 -10.36606,1.66798 -14.69958,3.68341 -4.56259,2.12263 -9.49178,6.81785 -14.69956,7.33273 11.46216,-1.30299 30.92862,3.19888 40.41528,7.33274 -8.00922,5.92653 -20.15999,3.79621 -29.36502,7.36683 -10.02207,3.94384 -19.70692,9.88027 -29.33093,14.69957 7.0082,0.61011 11.35346,-2.82668 18.28067,-3.68341 5.89501,-0.72925 12.42493,0 18.38299,0 12.92697,0 25.7993,-1.08093 36.73186,3.68341 -23.61155,0 -45.33419,4.92102 -62.44758,22.0323 6.08625,0 12.31776,0.40141 18.38299,0 8.27823,-0.54852 14.38664,-4.37695 22.03229,-3.68342 -8.07016,10.16757 -24.57827,16.76055 -36.73186,18.382989 17.03142,21.448998 47.61258,14.752806 69.78032,11.016149 23.4182,-3.946812 47.17242,-3.683418 71.65612,-3.683418 1.02137,0 2.91317,-0.125389 5.11586,-0.306952 -0.57413,-1.488734 -1.33867,-3.155428 -2.31919,-5.115859 -6.07698,-8.207389 -10.08136,-9.387129 -19.33794,-16.609489 9.06348,3.25514 25.95594,20.918658 27.95273,9.94437 -19.08333,-41.10688 -21.43621,-62.25809 -38.18115,-83.28864 -5.52933,-7.17068 -14.0982,-11.39378 -20.77711,-18.07268 -4.99762,-4.99552 -12.26535,-13.15091 -15.31688,-19.25608 -3.47533,-6.95271 -28.97774,-21.91444 -37.40715,-21.65719 z m -20.56575,59.95787 c 0.54154,-0.46534 0.52847,-0.27875 0,0 z m 192.4586,149.104218 c -13.00595,0.994076 -14.90719,3.357354 -20.19059,9.174439 -4.50971,4.508592 -8.25533,6.602635 -3.98843,10.909559 9.86277,9.9552824 15.46907,18.8543303 19.46631,41.161626 2.85265,15.919677 8.41203,32.087517 12.05201,48.215247 2.14179,9.489653 8.29837,30.543901 10.35545,37.466601 10.05829,13.78233 8.02097,-1.97014 8.02097,-14.699574 2.0911,5.928634 11.57448,24.707414 14.69957,14.699574 3.45714,11.07126 6.66863,-16.309386 18.38299,-3.64932 0,-9.871232 -5.14612,-20.324392 -3.68342,-29.399134 7.14758,4.762239 19.37798,11.909555 22.0323,18.34888 1.93138,-11.968643 -8.96147,-20.327427 -7.33274,-33.048448 6.64319,7.092921 5.17018,0.260601 7.33274,0 -1.73592,0.210157 3.68342,-8.760195 3.68342,-1.841709 0,3.074044 6.46077,4.125265 10.84562,6.002608 -7.63834,-8.146522 -7.59174,-21.319757 -14.52904,-29.876616 17.2647,-2.616504 32.36472,23.680669 47.78212,29.399136 C 963.2257,57.357951 958.2979,48.62181 951.24281,38.038121 c 1.12506,-1.160413 2.28251,-2.149393 3.51289,-2.694353 -8.85403,-4.335301 -16.56764,-12.005215 -1.67119,-12.005215 5.15185,0 12.06722,-1.044246 18.00783,-0.409269 -12.00289,-5.871565 -26.60395,-15.2117318 -30.86569,-21.6230298 -3.59373,-5.4053265 -2.38041,-2.9352425 7.36685,-3.6834184 3.57349,-0.2751486 7.3302,-0.6160968 10.7433,-0.1022626 -8.82137,-3.3924884 -19.34795,-5.3705223 -25.44288,-10.9138312 2.43997,0.145011 4.89278,-0.145013 7.33273,0 -3.99935,-4.415475 -19.83963,-7.866539 -25.71571,-7.332732 4.82319,-5.325469 11.52966,-3.683418 18.38298,-3.683418 -8.40852,-3.822821 -23.92978,-35.171525 -1.83626,-52.455814 -10.27401,-1.486239 -36.07475,-5.305641 -51.92476,-5.305641 l -32.29834,-1.194127 c -4.7999,-0.665596 -10.50556,-2.693384 -14.16373,5.922153 -6.14411,16.495278 4.42089,34.39657 15.7091,42.017225 z M 783.63075,-80.30101 c -1.63289,0.02063 -1.76789,-2.244652 -5.39804,-3.575843 l -38.81466,1.980064 c -11.41787,0.582463 -39.05939,4.130552 -53.62972,8.445323 29.33215,23.443454 18.24071,42.258717 15.66414,45.358584 -3.58068,0.425068 -6.42192,1.887139 -14.69957,7.366836 l 14.69957,0 c -4.28937,4.737018 -19.289,6.475275 -25.71571,7.332732 5.75629,-0.392997 6.59856,0.587753 11.01614,3.683417 -9.72414,-1.429089 -26.11782,5.9870017 -33.08256,11.0161502 10.07932,-4.5836022 19.31984,-4.5836022 29.39915,0 -5.27504,8.5682537 -13.60626,6.2735218 -20.19059,12.8578588 -6.56962,6.569624 -15.71396,9.253598 -23.90812,12.857859 9.60854,-1.281983 17.27846,-3.683419 27.55742,-3.683419 19.25283,0 0.77667,12.85226 -9.17443,14.699568 3.59163,-0.45395 7.39508,0.168127 11.01615,0 -7.0551,10.583689 -11.9509,19.31983 -22.03231,29.399136 7.8516,-2.912826 15.28194,-9.888991 22.03231,-14.699569 6.26068,-4.461705 15.47506,-8.108223 20.2247,-12.857858 7.05509,-7.055094 0.0833,9.970255 -1.84172,12.857858 -4.19272,6.288005 -6.82344,12.094982 -11.01614,18.382987 5.02284,-2.234008 11.61322,-6.559126 18.34887,-11.050255 -2.82456,10.974589 7.36684,3.370246 7.36684,12.789647 0,8.744785 -8.92623,14.268526 -7.36684,23.942219 7.43547,-7.424974 14.11135,-13.069642 22.0323,-18.34888 1.46272,9.074731 -3.64931,19.52788 -3.64931,29.399135 12.17461,-13.158163 9.02735,6.10891 14.69957,11.01615 3.22807,-8.94864 4.42691,2.90582 9.17443,-1.8417 4.75805,-4.75804 1.38169,-11.74542 9.17445,-16.54128 0,7.78014 -1.20912,15.366 3.68341,22.03229 2.29146,-1.9161 2.35738,-1.47903 7.16726,-19.75547 l 0.34739,-10.841849 c 10.12763,-20.263689 8.22938,-27.309109 13.58427,-48.716078 5.42452,-21.691143 9.96947,-47.7076789 25.12802,-54.7664 -0.28432,-4.982895 0.0378,-8.17503 -2.12823,-12.847667 -4.5752,-9.867043 -9.94975,-13.568448 -22.06641,-7.33273 19.64932,-15.09401 13.21629,-42.997074 12.39797,-48.558816 z"
       id="path5"
       inkscape:connector-curvature="0"
       sodipodi:nodetypes="ccssccccscccccccssccssscsccccscccscccscsscscccccsscssssssscscccscccccsccccccscccsccccccccccccsccccccccccscccccsccccccccccccccccccccccccccccsccccccccscccccccccccsccccccscccsccccccccccsscccccccscccccscccccccccscccccccscccccscscccsscccsccccscccccccccccc" /></g></svg>