<?xml version="1.0" encoding="UTF-8" standalone="no"?>
<!-- Generator: Adobe Illustrator 12.0.0, SVG Export Plug-In . SVG Version: 6.00 Build 51448)  -->

<svg
   xmlns:dc="http://purl.org/dc/elements/1.1/"
   xmlns:cc="http://creativecommons.org/ns#"
   xmlns:rdf="http://www.w3.org/1999/02/22-rdf-syntax-ns#"
   xmlns:svg="http://www.w3.org/2000/svg"
   xmlns="http://www.w3.org/2000/svg"
   xmlns:sodipodi="http://sodipodi.sourceforge.net/DTD/sodipodi-0.dtd"
   xmlns:inkscape="http://www.inkscape.org/namespaces/inkscape"
   id="Layer_1"
   sodipodi:docname="Butterfly.svg"
   xml:space="preserve"
   viewBox="0 0 1080 1080"
   sodipodi:version="0.32"
   version="1.1"
   inkscape:output_extension="org.inkscape.output.svg.inkscape"
   inkscape:version="0.48.5 r10040"
   width="100%"
   height="100%"><defs
     id="defs3067" /><sodipodi:namedview
     id="base"
     bordercolor="#666666"
     inkscape:pageshadow="2"
     inkscape:window-width="1440"
     pagecolor="#ffffff"
     inkscape:zoom="1.5309399"
     inkscape:window-x="0"
     borderopacity="1.0"
     inkscape:current-layer="layer1"
     inkscape:cx="688.22449"
     inkscape:cy="191.78264"
     inkscape:window-y="0"
     inkscape:window-height="851"
     inkscape:pageopacity="0.0"
     showgrid="false"
     inkscape:window-maximized="1"
     inkscape:document-units="in"
     showguides="true"
     inkscape:guide-bbox="true"
     units="in"
     inkscape:snap-global="false"><sodipodi:guide
       orientation="1,0"
       position="540,0 "
       id="guide3101" /><sodipodi:guide
       orientation="0,1"
       position="306.56516,277.29512"
       id="guide3273" /></sodipodi:namedview><path
     id="path21"
     style="stroke-width:0;stroke-miterlimit:10"
     d="M 387.47911,718.47616 H 370.64905"
     inkscape:connector-curvature="0" /><path
     id="path25"
     style="fill-rule:evenodd;stroke:#3f3f3f;stroke-width:1.9256357"
     d="M 246.11819,822.82829"
     inkscape:connector-curvature="0" /><line
     id="line27"
     style="stroke-width:0;stroke-miterlimit:10"
     y2="822.82837"
     y1="822.82837"
     x2="246.11819"
     x1="246.11819" /><metadata
     id="metadata3065"><rdf:RDF><cc:Work><dc:format>image/svg+xml</dc:format><dc:type
           rdf:resource="http://purl.org/dc/dcmitype/StillImage" /><cc:license
           rdf:resource="http://creativecommons.org/licenses/publicdomain/" /><dc:publisher><cc:Agent
             rdf:about="http://openclipart.org/"><dc:title>Openclipart</dc:title></cc:Agent></dc:publisher><dc:title></dc:title><dc:date>2009-06-03T19:24:03</dc:date><dc:description>Black and white butterfly by Francesco 'Architetto' Rollandin. From OCAL 0.18 release.</dc:description><dc:source>https://openclipart.org/detail/26451/architetto----farfalla-02-by-anonymous</dc:source><dc:creator><cc:Agent><dc:title>Anonymous</dc:title></cc:Agent></dc:creator><dc:subject><rdf:Bag><rdf:li>animal</rdf:li><rdf:li>butterfly</rdf:li><rdf:li>insect</rdf:li><rdf:li>outline</rdf:li></rdf:Bag></dc:subject></cc:Work><cc:License
         rdf:about="http://creativecommons.org/licenses/publicdomain/"><cc:permits
           rdf:resource="http://creativecommons.org/ns#Reproduction" /><cc:permits
           rdf:resource="http://creativecommons.org/ns#Distribution" /><cc:permits
           rdf:resource="http://creativecommons.org/ns#DerivativeWorks" /></cc:License></rdf:RDF></metadata><g
     inkscape:groupmode="layer"
     id="layer1"
     inkscape:label="Upper"
     style="opacity:1;display:inline"
     transform="translate(0,839.758)"><path
       style="stroke-width:0;stroke-miterlimit:10;display:inline"
       d="m 1077.5977,-284.30268 c 9.2828,18.5656 -9.1626,47.9286 -16.1252,65.59891 -7.8348,19.93794 -14.6995,39.07474 -14.6995,60.74231 0,6.04421 -3.6835,11.48922 -3.6835,18.34887 0,4.69079 1.1551,10.44544 -0.9549,14.66547 -5.7185,11.43483 -4.7587,21.34718 -12.585,33.082548 -12.8661,19.294848 -43.22585,56.43896 -63.60723,56.43896 17.36347,7.895731 28.2603,7.454856 36.73193,25.715716 4.1296,8.9024028 11.0161,17.6252395 11.0161,27.557427 0,10.344109 -4.5344,14.805138 0.955,25.783929 6.393,12.788272 4.7899,11.69284 -4.6043,20.122378 -3.8943,3.49497 -4.2144,-1.295286 -7.3668,3.683419 -1.5868,2.505116 0.9036,8.130641 0,11.016149 -0.4519,1.445908 -6.8347,1.631072 -7.33279,7.332731 -0.41611,4.753847 2.19571,9.564642 5.49099,12.857858 7.2359,7.235825 -6.24266,17.820455 -9.1744,20.224695 -19.05318,15.62334 -15.90494,33.07954 -7.91253,57.05888 6.25018,18.75263 28.46063,36.99569 15.27933,56.82014 -18.05907,27.16117 -19.59068,-26.9678 -22.06637,-36.73187 -3.20706,-12.63696 -12.00139,-24.82838 -23.97633,-28.81933 -10.95778,-3.6526 -19.6535,3.10361 -29.36503,3.10361 -6.82181,0 -11.39064,3.64932 -18.21246,3.64932 -5.18464,0 -9.06726,-3.64932 -14.69956,-3.64932 -7.96509,0 -13.3562,-11.44417 -16.6095,-14.69956 -3.20494,-3.20285 -14.69956,-9.28654 -14.69956,-16.54128 0,-9.31011 -2.64829,-23.51497 -4.94533,-32.70739 -6.15561,-24.64554 -12.15615,-49.850501 -20.19059,-73.941214 -3.03893,-9.116772 -4.42806,-18.049939 -7.91253,-27.4210035 -0.9608,-2.5857815 -2.39718,-4.8300364 -3.95627,-6.957568 0.14379,2.8336783 0.27285,5.6838693 0.27285,8.4923257 0,11.7059468 -0.65523,54.7915418 -11.01615,57.2294078 -16.94525,-2.038561 -10.08512,-40.308449 -13.40355,-53.580095 -0.86047,-3.4418736 -1.23081,-6.8449593 -1.43244,-10.1976121 -1.46053,2.3927595 -3.21252,4.6790654 -5.38871,6.8552509 -4.12966,4.1296522 -5.10786,22.3413452 -6.78703,29.0580782 -6.21235,24.838889 -14.14878,49.264449 -20.36112,74.11174 -2.49252,9.97003 -1.38744,21.56024 -4.05858,30.89979 -3.22386,11.27932 -12.85389,9.20457 -20.19059,16.54127 -3.17134,3.17134 0.0816,8.21276 -3.75163,10.1294 -4.28727,2.14576 -9.91632,6.41189 -14.69957,6.41189 -11.62398,0 -22.15601,-3.68343 -32.91203,-3.68343 -10.80015,0 -19.74182,-7.93566 -31.30905,0 -10.01837,6.87436 -14.69957,23.70392 -14.69957,35.23122 0,5.07749 -1.26447,27.27241 -3.68342,30.89979 -5.90341,8.85197 -19.18672,3.47255 -22.0323,-3.68342 -7.69818,-19.35158 13.08542,-44.48558 21.11145,-60.53766 4.69498,-9.39208 6.04388,-20.88508 4.60427,-31.30906 -0.36146,-2.61229 -2.23541,-12.55802 -3.68342,-14.69957 -2.97798,-4.40286 -11.01615,-2.92425 -11.01615,-9.17443 0,-1.20632 -6.93833,-5.13073 -9.17443,-7.36685 -4.65507,-4.65505 0.75727,-7.81399 1.8417,-12.857854 0.98145,-4.566794 3.68342,-6.651336 3.68342,-12.823752 0,-5.785729 -7.36684,-4.128267 -7.36684,-7.366838 0,-3.934207 1.01227,-8.16217 -1.84171,-11.016148 -2.57027,-2.570263 -9.17443,-0.474272 -9.17443,-3.683419 0,-2.883402 -3.68343,-1.555418 -3.68343,-7.332731 0,-5.01233 3.68343,-7.063989 3.68343,-11.084361 0,-6.45193 3.68341,-8.109108 3.68341,-14.563145 0,-4.55838 -3.96712,-6.877646 -3.68341,-12.92607 0.46235,-9.8523311 11.01614,-17.9825032 11.01614,-27.557426 0,-15.486739 26.64836,-16.589844 36.73186,-23.874008 -25.87496,0 -44.93655,-37.192744 -64.3575,-56.609489 -10.37353,-10.369329 -5.9901,-21.206079 -11.83469,-32.912019 -2.55764,-5.11952 -4.60427,-27.08571 -4.60427,-33.01434 0,-21.26196 -6.87738,-40.83168 -14.69956,-60.74231 -6.95632,-17.69761 -23.78172,-46.55474 -16.59582,-64.69172 18.71741,-44.49664 111.95972,-3.46437 138.51353,14.35515 43.59573,29.26067 80.1739,71.69897 99.72515,120.57393 4.14394,10.35728 9.35493,22.68739 14.5324,34.07926 0.61882,-5.35336 2.59892,-8.30628 2.59892,-14.37982 0,-5.29196 -0.81202,-8.0075 2.0739,-11.06444 -1.13609,-2.26619 -5.03283,-12.18436 -6.85597,-15.62683 -5.44426,-10.70834 -15.43215,-29.72207 -23.98967,-46.03056 -3.83662,-5.38514 -6.55862,-13.15697 -11.73975,-21.037 -4.8421,-7.26314 -9.35905,-13.18681 -12.81198,-21.22756 -2.93593,-6.83862 -8.97123,-14.26994 -11.04342,-20.4865 -1.20632,-3.61265 -2.0276,-5.45188 -2.36507,-9.27877 -0.5358,-6.07606 -3.11856,-5.92803 -4.15254,-8.80933 -0.79862,-2.22141 -6.37242,-12.55883 -2.40906,-15.81831 5.04098,1.43741 12.29037,18.61232 18.65295,32.5613 6.12828,14.37078 14.43466,25.00304 21.38679,38.90727 1.46678,2.93354 2.52148,6.29801 3.88942,9.37801 1.90382,3.00583 4.74124,7.09202 4.76014,7.14174 7.22143,15.54374 16.63135,34.52532 25.9679,51.50489 1.57632,3.07167 3.03244,7.95629 6.18848,11.61458 1.41752,-0.82706 2.97964,-0.53354 5.1454,-0.7901 2.98077,-0.35347 3.69214,0.87249 5.58314,1.6234 6.82608,-12.12408 10.46806,-27.50052 18.39752,-39.26287 0.95355,-1.8632 3.51518,-7.37601 6.32694,-10.53134 4.25408,-8.28494 7.7065,-15.0521 12.97501,-22.71491 3.53534,-8.00808 16.40596,-30.35471 23.0268,-46.73663 6.61751,-10.88025 10.26758,-28.40015 20.67727,-32.75322 0.88312,4.88363 -1.99703,12.46232 -2.81456,14.6417 -1.11385,2.97166 -3.91874,1.49885 -3.91874,9.2727 0,3.41511 -4.26303,6.96015 -5.69633,10.01378 -8.32193,17.99721 -15.06539,34.18224 -23.21166,45.82681 -6.04838,8.84649 -12.43152,21.08034 -17.27029,29.88804 -19.43298,37.83036 -15.2049,37.46414 -23.30722,46.48187 6.27092,6.2803 1.91368,18.97127 5.72909,27.59582 4.46801,-11.04954 9.79183,-25.27592 14.35852,-36.69099 18.47959,-50.3161 57.53118,-89.27734 99.72513,-117.59648 18.4219,-12.36363 65.14956,-34.49044 100.31516,-34.82878 19.1333,0.14278 30.1954,5.88973 37.0559,19.297 z m -93.27233,186.844769 c -656.21691,225.133271 -328.10846,112.566637 0,0 z"
       id="path5"
       inkscape:connector-curvature="0"
       sodipodi:nodetypes="ccssccccscccccccssccssscsccccscccscccscsscscccccsscssssssscscccscccccsccccccscccsccccccccccccsccccccccccc" /></g></svg>