<?xml version="1.0" encoding="UTF-8" standalone="no"?>
<!-- Generator: Adobe Illustrator 12.0.0, SVG Export Plug-In . SVG Version: 6.00 Build 51448)  -->

<svg
   xmlns:dc="http://purl.org/dc/elements/1.1/"
   xmlns:cc="http://creativecommons.org/ns#"
   xmlns:rdf="http://www.w3.org/1999/02/22-rdf-syntax-ns#"
   xmlns:svg="http://www.w3.org/2000/svg"
   xmlns="http://www.w3.org/2000/svg"
   xmlns:sodipodi="http://sodipodi.sourceforge.net/DTD/sodipodi-0.dtd"
   xmlns:inkscape="http://www.inkscape.org/namespaces/inkscape"
   id="Layer_1"
   sodipodi:docname="ButterflyBase.svg"
   xml:space="preserve"
   viewBox="0 0 990 765"
   sodipodi:version="0.32"
   version="1.1"
   inkscape:output_extension="org.inkscape.output.svg.inkscape"
   inkscape:version="0.48.5 r10040"
   width="100%"
   height="100%"><defs
     id="defs3067" /><sodipodi:namedview
     id="base"
     bordercolor="#666666"
     inkscape:pageshadow="2"
     inkscape:window-width="1440"
     pagecolor="#ffffff"
     inkscape:zoom="2.8905727"
     inkscape:window-x="0"
     borderopacity="1.0"
     inkscape:current-layer="layer1"
     inkscape:cx="925.74532"
     inkscape:cy="370.89667"
     inkscape:window-y="0"
     inkscape:window-height="851"
     inkscape:pageopacity="0.0"
     showgrid="false"
     inkscape:window-maximized="1"
     inkscape:document-units="in"
     showguides="true"
     inkscape:guide-bbox="true"
     inkscape:snap-global="false"><sodipodi:guide
       orientation="1,0"
       position="495,0"
       id="guide3101" /><sodipodi:guide
       orientation="1,0"
       position="775.61967,216.55833"
       id="guide3164" /><sodipodi:guide
       orientation="1,0"
       position="811.26243,192.24228"
       id="guide3180" /><sodipodi:guide
       orientation="1,0"
       position="866.7069,179.06561"
       id="guide3184" /></sodipodi:namedview><path
     id="path21"
     style="stroke-width:0;stroke-miterlimit:10"
     d="M 387.47911,403.47616 H 370.64905"
     inkscape:connector-curvature="0" /><path
     id="path25"
     style="fill-rule:evenodd;stroke:#3f3f3f;stroke-width:1.9256357"
     d="M 246.11819,507.82829"
     inkscape:connector-curvature="0" /><line
     id="line27"
     style="stroke-width:0;stroke-miterlimit:10"
     y2="507.82834"
     y1="507.82834"
     x2="246.11819"
     x1="246.11819" /><metadata
     id="metadata3065"><rdf:RDF><cc:Work><dc:format>image/svg+xml</dc:format><dc:type
           rdf:resource="http://purl.org/dc/dcmitype/StillImage" /><cc:license
           rdf:resource="http://creativecommons.org/licenses/publicdomain/" /><dc:publisher><cc:Agent
             rdf:about="http://openclipart.org/"><dc:title>Openclipart</dc:title></cc:Agent></dc:publisher><dc:title></dc:title><dc:date>2009-06-03T19:24:03</dc:date><dc:description>Black and white butterfly by Francesco 'Architetto' Rollandin. From OCAL 0.18 release.</dc:description><dc:source>https://openclipart.org/detail/26451/architetto----farfalla-02-by-anonymous</dc:source><dc:creator><cc:Agent><dc:title>Anonymous</dc:title></cc:Agent></dc:creator><dc:subject><rdf:Bag><rdf:li>animal</rdf:li><rdf:li>butterfly</rdf:li><rdf:li>insect</rdf:li><rdf:li>outline</rdf:li></rdf:Bag></dc:subject></cc:Work><cc:License
         rdf:about="http://creativecommons.org/licenses/publicdomain/"><cc:permits
           rdf:resource="http://creativecommons.org/ns#Reproduction" /><cc:permits
           rdf:resource="http://creativecommons.org/ns#Distribution" /><cc:permits
           rdf:resource="http://creativecommons.org/ns#DerivativeWorks" /></cc:License></rdf:RDF></metadata><g
     inkscape:groupmode="layer"
     id="layer1"
     inkscape:label="Background"
     style="display:inline"
     transform="translate(0,524.758)"><path
       style="stroke-width:0;stroke-miterlimit:10;display:inline"
       d="M 954.34375 303.59375 C 922.31831 303.12585 878.66065 324.6091 861.78125 335.9375 C 823.12026 361.88544 787.98538 397.5844 770.40625 441.53125 C 766.22194 451.99052 761.34389 466.75066 757.25 476.875 C 753.75406 468.9726 755.90209 455.25444 750.15625 449.5 C 757.58015 441.23733 756.41293 441.50652 774.21875 406.84375 C 778.65237 398.77353 782.26196 386.79779 789.03125 378.9375 C 796.49542 368.26795 805.61989 347.97806 811.28125 335.90625 C 812.59454 333.10831 814.65625 330.56666 814.65625 327.4375 C 814.65625 320.31457 817.01067 325.16034 818.03125 322.4375 C 818.78033 320.44061 823.94038 311.50288 821.40625 308.96875 C 821.33783 308.90035 821.24015 308.85775 821.15625 308.84375 C 818.55447 308.41079 808.76431 333.42397 807.40625 337.5 C 802.56713 352.01929 787.58307 374.88981 784.34375 381 C 779.51638 388.02119 775.61663 395.94002 771.71875 403.53125 C 769.14243 406.42238 767.71746 409.32405 766.84375 411.03125 C 759.57823 421.80872 753.50452 436.48483 747.25 447.59375 C 745.51733 446.90575 743.35619 446.64488 740.625 446.96875 C 738.64059 447.20383 737.36133 447.42969 736.0625 448.1875 C 733.17072 444.83552 730.66308 438.34572 729.21875 435.53125 C 725.31841 428.40411 715.61893 409.67071 707.09375 393.375 C 707.0348 393.3744 706.9868 393.4197 706.9375 393.4375 C 706.9202 393.392 706.9011 393.3664 706.875 393.3125 C 705.86707 391.22681 698.56271 380.59416 697.21875 377.90625 C 690.84873 365.16624 682.2714 352.44874 676.65625 339.28125 C 675.16689 335.78802 667.31819 309.48983 663.8125 308.75 C 663.57879 308.70068 663.37958 308.77667 663.1875 308.96875 C 660.6341 311.52407 665.83075 320.4021 666.5625 322.4375 C 667.50991 325.07755 669.90625 320.39737 669.90625 327.4375 C 669.90625 330.95757 671.64469 334.37733 672.75 337.6875 C 674.64868 343.38353 679.74739 349.82774 682.4375 356.09375 C 685.60131 363.46124 689.06333 371.31375 693.5 377.96875 C 698.2473 385.18897 700.35962 390.00325 703.875 394.9375 C 711.71599 409.88045 721.01159 428.37578 726 438.1875 C 727.67048 441.34173 732.83403 448.61106 733.875 450.6875 C 731.23072 453.48847 730.5 457.21364 730.5 462.0625 C 730.5 467.62749 728.192 471.68863 727.625 476.59375 C 722.88105 466.15574 717.95321 454.36504 714.15625 444.875 C 696.24206 400.09241 662.72663 362.71688 622.78125 335.90625 C 598.45083 319.57879 516.46576 282.62907 497.375 320.8125 C 496.6348 322.83773 495.93349 324.97183 495.25 327.15625 C 494.42471 325.08406 493.58696 323.04102 492.71875 321.0625 C 473.62799 282.87907 391.64292 319.82879 367.3125 336.15625 C 327.36712 362.96688 293.85169 400.34241 275.9375 445.125 C 272.14054 454.61504 267.2127 466.40574 262.46875 476.84375 C 261.90175 471.93863 259.59375 467.87749 259.59375 462.3125 C 259.59375 457.46364 258.86303 453.73847 256.21875 450.9375 C 257.25972 448.86106 262.42327 441.59173 264.09375 438.4375 C 269.08216 428.62578 278.37776 410.13045 286.21875 395.1875 C 289.73413 390.25325 291.84645 385.43897 296.59375 378.21875 C 301.03042 371.56375 304.49244 363.71124 307.65625 356.34375 C 310.34636 350.07774 315.44507 343.63353 317.34375 337.9375 C 318.44906 334.62733 320.1875 331.20757 320.1875 327.6875 C 320.1875 320.64737 322.58384 325.32755 323.53125 322.6875 C 324.263 320.6521 329.45965 311.77407 326.90625 309.21875 C 326.71417 309.02667 326.51496 308.95068 326.28125 309 C 322.77556 309.73983 314.92686 336.03802 313.4375 339.53125 C 307.82235 352.69874 299.24502 365.41624 292.875 378.15625 C 291.53104 380.84416 284.22668 391.47681 283.21875 393.5625 C 283.19265 393.6164 283.17355 393.642 283.15625 393.6875 C 283.10695 393.6697 283.05895 393.6244 283 393.625 C 274.47482 409.92071 264.77534 428.65411 260.875 435.78125 C 259.43067 438.59572 256.92303 445.08552 254.03125 448.4375 C 252.73242 447.67969 251.45316 447.45383 249.46875 447.21875 C 246.73756 446.89488 244.57642 447.15575 242.84375 447.84375 C 236.58923 436.73483 230.51552 422.05872 223.25 411.28125 C 222.37629 409.57405 220.95132 406.67238 218.375 403.78125 C 214.47712 396.19002 210.57737 388.27119 205.75 381.25 C 202.51068 375.13981 187.52662 352.26929 182.6875 337.75 C 181.32944 333.67397 171.53928 308.66079 168.9375 309.09375 C 168.8536 309.10775 168.75592 309.15035 168.6875 309.21875 C 166.15337 311.75288 171.31342 320.69061 172.0625 322.6875 C 173.08308 325.41034 175.4375 320.56457 175.4375 327.6875 C 175.4375 330.81666 177.49921 333.35831 178.8125 336.15625 C 184.47386 348.22806 193.59833 368.51795 201.0625 379.1875 C 207.83179 387.04779 211.44138 399.02353 215.875 407.09375 C 233.68082 441.75652 232.5136 441.48733 239.9375 449.75 C 234.19166 455.50444 236.33969 469.2226 232.84375 477.125 C 228.74986 467.00066 223.87181 452.24052 219.6875 441.78125 C 202.10837 397.8344 166.97349 362.13544 128.3125 336.1875 C 111.4331 324.8591 67.775437 303.37585 35.75 303.84375 C 21.192983 304.05643 9.022592 308.79797 2.875 321.09375 C -5.6305329 338.10482 10.839119 363.7155 17.21875 379.90625 C 24.39752 398.17475 30.6875 415.70919 30.6875 435.5625 C 30.6875 441.10063 34.0625 446.08972 34.0625 452.375 C 34.0625 456.67302 33.004162 461.94582 34.9375 465.8125 C 40.177155 476.28988 39.297684 485.37225 46.46875 496.125 C 58.257493 513.80426 86.075194 511.1875 104.75 511.1875 C 88.840407 518.42211 78.855988 518.01815 71.09375 534.75 C 67.309875 542.90699 61 550.89945 61 560 C 61 569.47798 65.154761 573.56548 60.125 583.625 C 54.267217 595.34249 55.736158 594.33878 64.34375 602.0625 C 67.911952 605.26483 68.205296 600.87567 71.09375 605.4375 C 72.547605 607.73286 70.265727 612.88735 71.09375 615.53125 C 71.507762 616.85609 77.356124 617.02575 77.8125 622.25 C 78.193776 626.6058 75.800648 631.01378 72.78125 634.03125 C 66.151287 640.66121 78.501239 650.35957 81.1875 652.5625 C 98.64531 666.87767 95.760692 682.87224 88.4375 704.84375 C 82.710659 722.02619 62.359913 738.74173 74.4375 756.90625 C 90.984487 781.79317 92.387851 732.1965 94.65625 723.25 C 97.59477 711.67115 105.65274 700.50053 116.625 696.84375 C 126.66527 693.497 134.63288 699.6875 143.53125 699.6875 C 149.78185 699.6875 153.96813 703.03125 160.21875 703.03125 C 164.96928 703.03125 168.5268 699.6875 173.6875 699.6875 C 180.98565 699.6875 185.92536 689.20156 188.90625 686.21875 C 191.84284 683.28408 202.375 677.70979 202.375 671.0625 C 202.375 662.53194 204.80154 649.51648 206.90625 641.09375 C 212.54644 618.51182 218.04454 595.41731 225.40625 573.34375 C 228.19072 564.99034 229.46354 556.80516 232.65625 548.21875 C 233.5366 545.84948 234.85271 543.79314 236.28125 541.84375 C 236.14951 544.44016 236.03125 547.0517 236.03125 549.625 C 236.03125 560.35079 236.63162 599.82876 246.125 602.0625 C 261.6514 600.19463 255.36568 565.12914 258.40625 552.96875 C 259.19467 549.81507 259.534 546.69693 259.71875 543.625 C 261.05699 545.81741 262.66228 547.91228 264.65625 549.90625 C 268.44013 553.69012 269.33643 570.37692 270.875 576.53125 C 276.56718 599.29034 283.83907 621.67071 289.53125 644.4375 C 291.81506 653.57272 290.80251 664.19246 293.25 672.75 C 296.20392 683.08488 305.02761 681.18386 311.75 687.90625 C 314.65579 690.81204 311.6752 695.43133 315.1875 697.1875 C 319.11579 699.15358 324.2735 703.0625 328.65625 703.0625 C 339.30694 703.0625 348.9571 699.6875 358.8125 699.6875 C 368.70834 699.6875 376.90131 692.4163 387.5 699.6875 C 396.67951 705.98625 400.96875 721.40664 400.96875 731.96875 C 400.96875 736.62109 402.12734 756.9576 404.34375 760.28125 C 407.04831 764.33664 411.45518 766.00675 415.5 764.96875 C 420.48405 765.38077 463.45342 764.95657 495.09375 764.875 C 495.0951 764.89424 495.0924 764.91826 495.09375 764.9375 C 506.48657 765.04189 550.62807 765.04545 574.59375 765.09375 C 578.63858 766.13175 583.04544 764.08664 585.75 760.03125 C 587.96641 756.7076 589.125 736.37109 589.125 731.71875 C 589.125 721.15664 593.41424 705.73625 602.59375 699.4375 C 613.19244 692.1663 621.38541 699.4375 631.28125 699.4375 C 641.13665 699.4375 650.78681 702.8125 661.4375 702.8125 C 665.82025 702.8125 670.97796 698.90358 674.90625 696.9375 C 678.41855 695.18133 675.43796 690.56204 678.34375 687.65625 C 685.06614 680.93386 693.88983 682.83488 696.84375 672.5 C 699.29124 663.94246 698.27869 653.32272 700.5625 644.1875 C 706.25468 621.42071 713.52657 599.04034 719.21875 576.28125 C 720.75732 570.12692 721.65362 553.44012 725.4375 549.65625 C 727.43147 547.66228 729.03676 545.56741 730.375 543.375 C 730.55975 546.44693 730.89908 549.56507 731.6875 552.71875 C 734.72807 564.87914 728.44235 599.94463 743.96875 601.8125 C 753.46213 599.57876 754.0625 560.10079 754.0625 549.375 C 754.0625 546.8017 753.94424 544.19016 753.8125 541.59375 C 755.24104 543.54314 756.55715 545.59948 757.4375 547.96875 C 760.63021 556.55516 761.90303 564.74034 764.6875 573.09375 C 772.04921 595.16731 777.54731 618.26182 783.1875 640.84375 C 785.29221 649.26648 787.71875 662.28194 787.71875 670.8125 C 787.71875 677.45979 798.25091 683.03408 801.1875 685.96875 C 804.16839 688.95156 809.1081 699.4375 816.40625 699.4375 C 821.56695 699.4375 825.12447 702.78125 829.875 702.78125 C 836.12562 702.78125 840.3119 699.4375 846.5625 699.4375 C 855.46087 699.4375 863.42848 693.247 873.46875 696.59375 C 884.44101 700.25053 892.49898 711.42115 895.4375 723 C 897.7059 731.9465 899.10926 781.54317 915.65625 756.65625 C 927.73384 738.49173 907.38309 721.77619 901.65625 704.59375 C 894.33306 682.62224 891.44844 666.62767 908.90625 652.3125 C 911.59251 650.10957 923.94246 640.41121 917.3125 633.78125 C 914.2931 630.76378 911.89997 626.3558 912.28125 622 C 912.73763 616.77575 918.58599 616.60609 919 615.28125 C 919.82802 612.63735 917.54614 607.48286 919 605.1875 C 921.88845 600.62567 922.1818 605.01483 925.75 601.8125 C 934.35759 594.08878 935.82653 595.09249 929.96875 583.375 C 924.93899 573.31548 929.09375 569.22798 929.09375 559.75 C 929.09375 550.64945 922.78387 542.65699 919 534.5 C 911.23776 517.76815 901.25334 518.17211 885.34375 510.9375 C 904.01856 510.9375 931.83626 513.55426 943.625 495.875 C 950.79606 485.12225 949.91659 476.03988 955.15625 465.5625 C 957.08958 461.69582 956.03125 456.42302 956.03125 452.125 C 956.03125 445.83972 959.40625 440.85063 959.40625 435.3125 C 959.40625 415.45919 965.69623 397.92475 972.875 379.65625 C 979.25463 363.4655 995.72425 337.85482 987.21875 320.84375 C 981.07111 308.54797 968.90076 303.80643 954.34375 303.59375 z M 751.0625 483.1875 C 751.43164 483.18751 751.76952 483.2149 752.0625 483.25 C 752.36132 483.2852 752.6289 483.32815 752.875 483.375 L 752.875 484.875 L 752.78125 484.875 C 752.5996 484.8223 752.35547 484.77149 752.0625 484.71875 C 751.76953 484.66015 751.53515 484.625 751.3125 484.625 C 750.60351 484.62502 750.07226 484.77736 749.75 485.09375 C 749.43359 485.40431 749.28125 485.9922 749.28125 486.8125 L 749.28125 487.125 L 752.25 487.125 L 752.25 488.53125 L 749.34375 488.53125 L 749.34375 496.96875 L 747.6875 496.96875 L 747.6875 488.53125 L 746.5625 488.53125 L 746.5625 487.125 L 747.6875 487.125 L 747.6875 486.8125 C 747.6875 485.6465 747.98242 484.7461 748.5625 484.125 C 749.14257 483.49806 749.96679 483.18751 751.0625 483.1875 z M 878.9375 483.1875 C 879.30664 483.18751 879.61327 483.2149 879.90625 483.25 C 880.20507 483.2852 880.5039 483.32815 880.75 483.375 L 880.75 484.875 L 880.65625 484.875 C 880.4746 484.8223 880.23047 484.77149 879.9375 484.71875 C 879.64453 484.66015 879.3789 484.625 879.15625 484.625 C 878.44726 484.62502 877.94726 484.77736 877.625 485.09375 C 877.30859 485.40431 877.125 485.9922 877.125 486.8125 L 877.125 487.125 L 880.125 487.125 L 880.125 488.53125 L 877.1875 488.53125 L 877.1875 496.96875 L 875.53125 496.96875 L 875.53125 488.53125 L 874.4375 488.53125 L 874.4375 487.125 L 875.53125 487.125 L 875.53125 486.8125 C 875.53125 485.6465 875.82617 484.7461 876.40625 484.125 C 876.98633 483.49806 877.8418 483.18751 878.9375 483.1875 z M 691.4375 483.28125 L 693.09375 483.28125 L 693.09375 488.15625 C 693.55664 487.7754 694.04101 487.45899 694.5625 487.21875 C 695.08398 486.97266 695.69335 486.87501 696.34375 486.875 C 697.5039 486.87501 698.39452 487.29689 699.0625 488.1875 C 699.73631 489.07814 700.09374 490.34571 700.09375 491.96875 C 700.09374 492.78907 699.95311 493.53125 699.71875 494.1875 C 699.49022 494.84375 699.20506 495.39844 698.8125 495.84375 C 698.39647 496.30664 697.93554 496.64062 697.4375 496.875 C 696.93945 497.10351 696.3789 497.21875 695.78125 497.21875 C 695.2246 497.21875 694.72851 497.166 694.3125 497.03125 C 693.89648 496.90235 693.49805 496.72266 693.09375 496.5 L 693 496.96875 L 691.4375 496.96875 L 691.4375 483.28125 z M 765.3125 483.28125 L 766.96875 483.28125 L 766.96875 496.96875 L 765.3125 496.96875 L 765.3125 483.28125 z M 820.21875 483.28125 L 821.875 483.28125 L 821.875 488.15625 C 822.33788 487.7754 822.82226 487.45899 823.34375 487.21875 C 823.86523 486.97266 824.44336 486.87501 825.09375 486.875 C 826.2539 486.87501 827.17577 487.29689 827.84375 488.1875 C 828.51757 489.07814 828.87499 490.34571 828.875 491.96875 C 828.87499 492.78907 828.73436 493.53125 828.5 494.1875 C 828.27147 494.84375 827.98632 495.39844 827.59375 495.84375 C 827.17772 496.30664 826.71678 496.64062 826.21875 496.875 C 825.72069 497.10351 825.16015 497.21875 824.5625 497.21875 C 824.00585 497.21875 823.50976 497.166 823.09375 497.03125 C 822.67773 496.90235 822.27929 496.72266 821.875 496.5 L 821.78125 496.96875 L 820.21875 496.96875 L 820.21875 483.28125 z M 881.8125 483.28125 L 883.4375 483.28125 L 883.4375 496.96875 L 881.8125 496.96875 L 881.8125 483.28125 z M 742.625 483.78125 L 744.46875 483.78125 L 744.46875 485.5 L 742.625 485.5 L 742.625 483.78125 z M 588.03125 483.875 L 589.9375 483.875 L 593.53125 489.71875 L 597.125 483.875 L 599 483.875 L 594.375 491.21875 L 594.375 496.96875 L 592.65625 496.96875 L 592.65625 491.40625 L 588.03125 483.875 z M 735.625 484.3125 L 737.28125 484.3125 L 737.28125 487.125 L 740.6875 487.125 L 740.6875 488.53125 L 737.28125 488.53125 L 737.28125 493 C 737.28125 493.51563 737.289 493.92579 737.3125 494.21875 C 737.3359 494.50586 737.42187 494.7793 737.5625 495.03125 C 737.6914 495.26563 737.87109 495.41992 738.09375 495.53125 C 738.32227 495.63672 738.66211 495.6875 739.125 495.6875 C 739.39453 495.6875 739.67578 495.66991 739.96875 495.59375 C 740.26172 495.51175 740.49608 495.42773 740.625 495.375 L 740.6875 495.375 L 740.6875 496.875 C 740.37694 496.957 740.05663 497.00976 739.6875 497.0625 C 739.32421 497.1152 739.00585 497.15625 738.71875 497.15625 C 737.71679 497.15625 736.92773 496.88282 736.40625 496.34375 C 735.88477 495.80469 735.62499 494.93946 735.625 493.75 L 735.625 488.53125 L 734.53125 488.53125 L 734.53125 487.125 L 735.625 487.125 L 735.625 484.3125 z M 842.875 484.3125 L 844.5 484.3125 L 844.5 487.125 L 847.9375 487.125 L 847.9375 488.53125 L 844.5 488.53125 L 844.5 493 C 844.5 493.51563 844.539 493.92579 844.5625 494.21875 C 844.5859 494.50586 844.64062 494.7793 844.78125 495.03125 C 844.91016 495.26563 845.08984 495.41992 845.3125 495.53125 C 845.54101 495.63672 845.9121 495.6875 846.375 495.6875 C 846.64452 495.6875 846.92577 495.66991 847.21875 495.59375 C 847.51171 495.51175 847.71484 495.42773 847.84375 495.375 L 847.9375 495.375 L 847.9375 496.875 C 847.62695 496.957 847.27538 497.00976 846.90625 497.0625 C 846.54296 497.1152 846.22461 497.15625 845.9375 497.15625 C 844.93554 497.15625 844.17773 496.88282 843.65625 496.34375 C 843.13476 495.80469 842.875 494.93946 842.875 493.75 L 842.875 488.53125 L 841.75 488.53125 L 841.75 487.125 L 842.875 487.125 L 842.875 484.3125 z M 849.96875 484.3125 L 851.625 484.3125 L 851.625 487.125 L 855.03125 487.125 L 855.03125 488.53125 L 851.625 488.53125 L 851.625 493 C 851.62499 493.51563 851.63275 493.92579 851.65625 494.21875 C 851.67965 494.50586 851.76562 494.7793 851.90625 495.03125 C 852.03515 495.26563 852.21484 495.41992 852.4375 495.53125 C 852.66601 495.63672 853.00585 495.6875 853.46875 495.6875 C 853.73827 495.6875 854.01952 495.66991 854.3125 495.59375 C 854.60546 495.51175 854.80859 495.42773 854.9375 495.375 L 855.03125 495.375 L 855.03125 496.875 C 854.7207 496.957 854.36913 497.00976 854 497.0625 C 853.63671 497.1152 853.31836 497.15625 853.03125 497.15625 C 852.0293 497.15625 851.27148 496.88282 850.75 496.34375 C 850.22851 495.80469 849.96875 494.93946 849.96875 493.75 L 849.96875 488.53125 L 848.84375 488.53125 L 848.84375 487.125 L 849.96875 487.125 L 849.96875 484.3125 z M 604.5 486.875 C 605.87695 486.87501 606.99218 487.31837 607.8125 488.25 C 608.6328 489.17579 609.03124 490.4629 609.03125 492.0625 C 609.03124 493.66212 608.6328 494.91797 607.8125 495.84375 C 606.99218 496.76953 605.87695 497.21875 604.5 497.21875 C 603.11133 497.21875 602.00781 496.76953 601.1875 495.84375 C 600.37304 494.91797 599.96875 493.66212 599.96875 492.0625 C 599.96875 490.4629 600.37304 489.17579 601.1875 488.25 C 602.00781 487.31837 603.11133 486.87501 604.5 486.875 z M 651.9375 486.875 C 653.26171 486.87501 654.28515 487.25783 655 488.03125 C 655.72069 488.8047 656.06249 489.88868 656.0625 491.3125 L 656.0625 492.21875 L 648.84375 492.21875 C 648.84374 492.82227 648.91209 493.36133 649.09375 493.8125 C 649.27538 494.25781 649.52734 494.61914 649.84375 494.90625 C 650.14843 495.1875 650.52148 495.39063 650.9375 495.53125 C 651.35937 495.67188 651.80859 495.75 652.3125 495.75 C 652.98046 495.75 653.66991 495.60743 654.34375 495.34375 C 655.02343 495.07422 655.49413 494.82031 655.78125 494.5625 L 655.875 494.5625 L 655.875 496.34375 C 655.31835 496.57813 654.73632 496.7793 654.15625 496.9375 C 653.57616 497.0957 652.98242 497.1875 652.34375 497.1875 C 650.71484 497.1875 649.44531 496.7539 648.53125 495.875 C 647.61718 494.99023 647.15625 493.7168 647.15625 492.09375 C 647.15625 490.48829 647.59571 489.22461 648.46875 488.28125 C 649.34766 487.3379 650.5078 486.87501 651.9375 486.875 z M 706.75 486.875 C 708.07421 486.87501 709.0664 487.25783 709.78125 488.03125 C 710.50195 488.8047 710.87499 489.88868 710.875 491.3125 L 710.875 492.21875 L 703.65625 492.21875 C 703.65625 492.82227 703.72459 493.36133 703.90625 493.8125 C 704.08789 494.25781 704.33984 494.61914 704.65625 494.90625 C 704.96093 495.1875 705.33398 495.39063 705.75 495.53125 C 706.17187 495.67188 706.62108 495.75 707.125 495.75 C 707.79296 495.75 708.48242 495.60743 709.15625 495.34375 C 709.83593 495.07422 710.30663 494.82031 710.59375 494.5625 L 710.6875 494.5625 L 710.6875 496.34375 C 710.13085 496.57813 709.54882 496.7793 708.96875 496.9375 C 708.38866 497.0957 707.79492 497.1875 707.15625 497.1875 C 705.52734 497.1875 704.25781 496.7539 703.34375 495.875 C 702.42969 494.99023 701.96875 493.7168 701.96875 492.09375 C 701.96875 490.48829 702.4082 489.22461 703.28125 488.28125 C 704.16015 487.3379 705.32031 486.87501 706.75 486.875 z M 861.09375 486.875 C 862.41796 486.87501 863.44139 487.25783 864.15625 488.03125 C 864.87694 488.8047 865.24999 489.88868 865.25 491.3125 L 865.25 492.21875 L 858 492.21875 C 858 492.82227 858.09959 493.36133 858.28125 493.8125 C 858.46289 494.25781 858.71484 494.61914 859.03125 494.90625 C 859.33594 495.1875 859.70898 495.39063 860.125 495.53125 C 860.54687 495.67188 860.99609 495.75 861.5 495.75 C 862.16796 495.75 862.85741 495.60743 863.53125 495.34375 C 864.21092 495.07422 864.68163 494.82031 864.96875 494.5625 L 865.0625 494.5625 L 865.0625 496.34375 C 864.50585 496.57813 863.92382 496.7793 863.34375 496.9375 C 862.76367 497.0957 862.16991 497.1875 861.53125 497.1875 C 859.90234 497.1875 858.6328 496.7539 857.71875 495.875 C 856.80468 494.99023 856.34375 493.7168 856.34375 492.09375 C 856.34375 490.48829 856.7832 489.22461 857.65625 488.28125 C 858.53516 487.3379 859.66406 486.87501 861.09375 486.875 z M 632.6875 486.90625 C 633.3789 486.90626 633.95897 486.94532 634.46875 487.0625 C 634.98436 487.17384 635.4375 487.38086 635.8125 487.65625 C 636.18164 487.92578 636.46289 488.25978 636.65625 488.6875 C 636.8496 489.11525 636.93749 489.64845 636.9375 490.28125 L 636.9375 496.96875 L 635.3125 496.96875 L 635.3125 495.90625 C 635.16601 496.00585 634.9707 496.16211 634.71875 496.34375 C 634.47265 496.51953 634.23437 496.64453 634 496.75 C 633.7246 496.88477 633.38867 497.00586 633.03125 497.09375 C 632.67382 497.18745 632.26172 497.21875 631.78125 497.21875 C 630.89649 497.21875 630.14649 496.92968 629.53125 496.34375 C 628.91602 495.75781 628.625 495.00196 628.625 494.09375 C 628.625 493.34962 628.77734 492.76953 629.09375 492.3125 C 629.41602 491.84961 629.87695 491.48243 630.46875 491.21875 C 631.0664 490.95509 631.7871 490.78126 632.625 490.6875 C 633.46288 490.5938 634.35155 490.51563 635.3125 490.46875 L 635.3125 490.21875 C 635.31249 489.84376 635.2285 489.52735 635.09375 489.28125 C 634.96484 489.03516 634.77734 488.82813 634.53125 488.6875 C 634.29687 488.55274 634.01562 488.48438 633.6875 488.4375 C 633.35937 488.3906 633.04492 488.34375 632.6875 488.34375 C 632.2539 488.34376 631.75195 488.41407 631.21875 488.53125 C 630.68555 488.64259 630.13086 488.81446 629.5625 489.03125 L 629.46875 489.03125 L 629.46875 487.34375 C 629.79101 487.25585 630.26562 487.16798 630.875 487.0625 C 631.48437 486.95704 632.0957 486.90626 632.6875 486.90625 z M 668.25 486.90625 C 668.9414 486.90626 669.55273 486.94532 670.0625 487.0625 C 670.57812 487.17384 671.03124 487.38086 671.40625 487.65625 C 671.77538 487.92578 672.05663 488.25978 672.25 488.6875 C 672.44335 489.11525 672.53124 489.64845 672.53125 490.28125 L 672.53125 496.96875 L 670.875 496.96875 L 670.875 495.90625 C 670.72851 496.00585 670.53319 496.16211 670.28125 496.34375 C 670.03515 496.51953 669.79687 496.64453 669.5625 496.75 C 669.28711 496.88477 668.98242 497.00586 668.625 497.09375 C 668.26758 497.18745 667.85546 497.21875 667.375 497.21875 C 666.49023 497.21875 665.74023 496.92968 665.125 496.34375 C 664.50976 495.75781 664.1875 495.00196 664.1875 494.09375 C 664.1875 493.34962 664.33984 492.76953 664.65625 492.3125 C 664.97851 491.84961 665.43945 491.48243 666.03125 491.21875 C 666.6289 490.95509 667.34961 490.78126 668.1875 490.6875 C 669.02539 490.5938 669.91406 490.51563 670.875 490.46875 L 670.875 490.21875 C 670.875 489.84376 670.82225 489.52735 670.6875 489.28125 C 670.55859 489.03516 670.37109 488.82813 670.125 488.6875 C 669.89062 488.55274 669.60937 488.48438 669.28125 488.4375 C 668.95312 488.3906 668.60742 488.34375 668.25 488.34375 C 667.81641 488.34376 667.3457 488.41407 666.8125 488.53125 C 666.27929 488.64259 665.7246 488.81446 665.15625 489.03125 L 665.0625 489.03125 L 665.0625 487.34375 C 665.38477 487.25585 665.85937 487.16798 666.46875 487.0625 C 667.07812 486.95704 667.6582 486.90626 668.25 486.90625 z M 679.09375 486.90625 C 679.67968 486.90626 680.24609 486.97857 680.84375 487.125 C 681.44726 487.26563 681.9453 487.41994 682.34375 487.625 L 682.34375 489.40625 L 682.28125 489.40625 C 681.85937 489.09571 681.32226 488.83595 680.71875 488.625 C 680.11523 488.40821 679.54882 488.28126 678.96875 488.28125 C 678.36523 488.28126 677.85351 488.42188 677.4375 488.65625 C 677.02148 488.88477 676.8125 489.23047 676.8125 489.6875 C 676.8125 490.0918 676.93555 490.38868 677.1875 490.59375 C 677.43359 490.79883 677.82422 490.96485 678.375 491.09375 C 678.67969 491.16405 679.03124 491.2422 679.40625 491.3125 C 679.7871 491.3828 680.0918 491.44141 680.34375 491.5 C 681.11133 491.67579 681.70898 491.97852 682.125 492.40625 C 682.54101 492.83984 682.74999 493.41016 682.75 494.125 C 682.74999 495.02149 682.36913 495.76953 681.625 496.34375 C 680.88671 496.91797 679.87695 497.1875 678.59375 497.1875 C 677.86718 497.1875 677.20313 497.10739 676.59375 496.9375 C 675.99024 496.76172 675.47265 496.58008 675.0625 496.375 L 675.0625 494.5 L 675.15625 494.5 C 675.67773 494.89258 676.26758 495.20313 676.90625 495.4375 C 677.54492 495.66602 678.16405 495.78126 678.75 495.78125 C 679.47655 495.78126 680.02734 495.67188 680.4375 495.4375 C 680.84765 495.20313 681.06249 494.84766 681.0625 494.34375 C 681.06249 493.95703 680.9414 493.66798 680.71875 493.46875 C 680.49609 493.26954 680.07031 493.07813 679.4375 492.9375 C 679.20312 492.8848 678.9121 492.82031 678.53125 492.75 C 678.15625 492.6797 677.81054 492.61329 677.5 492.53125 C 676.63867 492.30274 676.01953 491.97071 675.65625 491.53125 C 675.29883 491.08594 675.125 490.55079 675.125 489.90625 C 675.125 489.50196 675.2109 489.10743 675.375 488.75 C 675.54492 488.39258 675.78516 488.06251 676.125 487.78125 C 676.45313 487.50587 676.87109 487.31446 677.375 487.15625 C 677.88476 486.99219 678.46679 486.90626 679.09375 486.90625 z M 716.75 486.90625 C 717.4414 486.90626 718.02148 486.94532 718.53125 487.0625 C 719.04687 487.17384 719.49999 487.38086 719.875 487.65625 C 720.24413 487.92578 720.52538 488.25978 720.71875 488.6875 C 720.9121 489.11525 720.99999 489.64845 721 490.28125 L 721 496.96875 L 719.375 496.96875 L 719.375 495.90625 C 719.22851 496.00585 719.03319 496.16211 718.78125 496.34375 C 718.53514 496.51953 718.29687 496.64453 718.0625 496.75 C 717.78711 496.88477 717.45117 497.00586 717.09375 497.09375 C 716.73633 497.18745 716.32421 497.21875 715.84375 497.21875 C 714.95898 497.21875 714.20898 496.92968 713.59375 496.34375 C 712.97851 495.75781 712.65625 495.00196 712.65625 494.09375 C 712.65625 493.34962 712.83984 492.76953 713.15625 492.3125 C 713.47851 491.84961 713.93945 491.48243 714.53125 491.21875 C 715.1289 490.95509 715.81835 490.78126 716.65625 490.6875 C 717.49413 490.5938 718.41406 490.51563 719.375 490.46875 L 719.375 490.21875 C 719.37499 489.84376 719.291 489.52735 719.15625 489.28125 C 719.02734 489.03516 718.83984 488.82813 718.59375 488.6875 C 718.35937 488.55274 718.07812 488.48438 717.75 488.4375 C 717.42187 488.3906 717.07617 488.34375 716.71875 488.34375 C 716.28515 488.34376 715.81445 488.41407 715.28125 488.53125 C 714.74804 488.64259 714.19336 488.81446 713.625 489.03125 L 713.53125 489.03125 L 713.53125 487.34375 C 713.85352 487.25585 714.32813 487.16798 714.9375 487.0625 C 715.54688 486.95704 716.1582 486.90626 716.75 486.90625 z M 779.875 486.90625 C 780.5664 486.90626 781.17773 486.94532 781.6875 487.0625 C 782.20312 487.17384 782.65624 487.38086 783.03125 487.65625 C 783.40038 487.92578 783.68163 488.25978 783.875 488.6875 C 784.06835 489.11525 784.15624 489.64845 784.15625 490.28125 L 784.15625 496.96875 L 782.5 496.96875 L 782.5 495.90625 C 782.3535 496.00585 782.1582 496.16211 781.90625 496.34375 C 781.66015 496.51953 781.42187 496.64453 781.1875 496.75 C 780.9121 496.88477 780.60741 497.00586 780.25 497.09375 C 779.89257 497.18745 779.44922 497.21875 778.96875 497.21875 C 778.08398 497.21875 777.33398 496.92968 776.71875 496.34375 C 776.10352 495.75781 775.8125 495.00196 775.8125 494.09375 C 775.8125 493.34962 775.96484 492.76953 776.28125 492.3125 C 776.60351 491.84961 777.06446 491.48243 777.65625 491.21875 C 778.25391 490.95509 778.97461 490.78126 779.8125 490.6875 C 780.65039 490.5938 781.53905 490.51563 782.5 490.46875 L 782.5 490.21875 C 782.49999 489.84376 782.44725 489.52735 782.3125 489.28125 C 782.18358 489.03516 781.99608 488.82813 781.75 488.6875 C 781.51562 488.55274 781.23437 488.48438 780.90625 488.4375 C 780.57812 488.3906 780.23241 488.34375 779.875 488.34375 C 779.4414 488.34376 778.93945 488.41407 778.40625 488.53125 C 777.87305 488.64259 777.34961 488.81446 776.78125 489.03125 L 776.6875 489.03125 L 776.6875 487.34375 C 777.00976 487.25585 777.48437 487.16798 778.09375 487.0625 C 778.70312 486.95704 779.2832 486.90626 779.875 486.90625 z M 790.6875 486.90625 C 791.27343 486.90626 791.87109 486.97857 792.46875 487.125 C 793.07226 487.26563 793.57031 487.41994 793.96875 487.625 L 793.96875 489.40625 L 793.875 489.40625 C 793.45312 489.09571 792.94726 488.83595 792.34375 488.625 C 791.74022 488.40821 791.14257 488.28126 790.5625 488.28125 C 789.95898 488.28126 789.47851 488.42188 789.0625 488.65625 C 788.64648 488.88477 788.43749 489.23047 788.4375 489.6875 C 788.43749 490.0918 788.56054 490.38868 788.8125 490.59375 C 789.05859 490.79883 789.44921 490.96485 790 491.09375 C 790.30468 491.16405 790.65624 491.2422 791.03125 491.3125 C 791.4121 491.3828 791.71679 491.44141 791.96875 491.5 C 792.73632 491.67579 793.33398 491.97852 793.75 492.40625 C 794.16601 492.83984 794.37499 493.41016 794.375 494.125 C 794.37499 495.02149 793.99413 495.76953 793.25 496.34375 C 792.51171 496.91797 791.50195 497.1875 790.21875 497.1875 C 789.49219 497.1875 788.82812 497.10739 788.21875 496.9375 C 787.61523 496.76172 787.09766 496.58008 786.6875 496.375 L 786.6875 494.5 L 786.78125 494.5 C 787.30273 494.89258 787.89257 495.20313 788.53125 495.4375 C 789.16991 495.66602 789.75781 495.78126 790.34375 495.78125 C 791.07031 495.78126 791.65234 495.67188 792.0625 495.4375 C 792.47265 495.20313 792.6875 494.84766 792.6875 494.34375 C 792.6875 493.95703 792.5664 493.66798 792.34375 493.46875 C 792.12108 493.26954 791.69531 493.07813 791.0625 492.9375 C 790.82812 492.8848 790.50586 492.82031 790.125 492.75 C 789.75 492.6797 789.4043 492.61329 789.09375 492.53125 C 788.23242 492.30274 787.64453 491.97071 787.28125 491.53125 C 786.92383 491.08594 786.74999 490.55079 786.75 489.90625 C 786.74999 489.50196 786.80466 489.10743 786.96875 488.75 C 787.13867 488.39258 787.41015 488.06251 787.75 487.78125 C 788.07812 487.50587 788.4961 487.31446 789 487.15625 C 789.50977 486.99219 790.06055 486.90626 790.6875 486.90625 z M 806.4375 486.90625 C 807.1289 486.90626 807.70898 486.94532 808.21875 487.0625 C 808.73437 487.17384 809.18749 487.38086 809.5625 487.65625 C 809.93163 487.92578 810.21288 488.25978 810.40625 488.6875 C 810.5996 489.11525 810.68749 489.64845 810.6875 490.28125 L 810.6875 496.96875 L 809.0625 496.96875 L 809.0625 495.90625 C 808.916 496.00585 808.7207 496.16211 808.46875 496.34375 C 808.22265 496.51953 807.95311 496.64453 807.71875 496.75 C 807.44335 496.88477 807.13866 497.00586 806.78125 497.09375 C 806.42382 497.18745 806.01172 497.21875 805.53125 497.21875 C 804.64648 497.21875 803.89648 496.92968 803.28125 496.34375 C 802.66602 495.75781 802.34375 495.00196 802.34375 494.09375 C 802.34375 493.34962 802.52734 492.76953 802.84375 492.3125 C 803.16601 491.84961 803.5957 491.48243 804.1875 491.21875 C 804.78516 490.95509 805.50586 490.78126 806.34375 490.6875 C 807.18164 490.5938 808.10155 490.51563 809.0625 490.46875 L 809.0625 490.21875 C 809.06249 489.84376 808.9785 489.52735 808.84375 489.28125 C 808.71483 489.03516 808.52733 488.82813 808.28125 488.6875 C 808.04687 488.55274 807.76562 488.48438 807.4375 488.4375 C 807.10937 488.3906 806.76366 488.34375 806.40625 488.34375 C 805.97265 488.34376 805.50195 488.41407 804.96875 488.53125 C 804.43555 488.64259 803.88085 488.81446 803.3125 489.03125 L 803.21875 489.03125 L 803.21875 487.34375 C 803.54101 487.25585 804.01562 487.16798 804.625 487.0625 C 805.23437 486.95704 805.84569 486.90626 806.4375 486.90625 z M 611.53125 487.125 L 613.1875 487.125 L 613.1875 492.71875 C 613.18749 493.2168 613.2031 493.64259 613.25 494 C 613.2969 494.35157 613.41015 494.6543 613.5625 494.90625 C 613.7207 495.16406 613.9043 495.35156 614.15625 495.46875 C 614.4082 495.58594 614.80077 495.65625 615.28125 495.65625 C 615.70897 495.65625 616.15233 495.53516 616.65625 495.3125 C 617.166 495.08985 617.65429 494.81445 618.09375 494.46875 L 618.09375 487.125 L 619.75 487.125 L 619.75 496.96875 L 618.09375 496.96875 L 618.09375 495.875 C 617.53711 496.31445 617.00975 496.64062 616.5 496.875 C 615.99022 497.10937 615.42772 497.21875 614.8125 497.21875 C 613.78124 497.21875 612.98047 496.9082 612.40625 496.28125 C 611.83203 495.64844 611.53125 494.71875 611.53125 493.5 L 611.53125 487.125 z M 640.15625 487.125 L 641.8125 487.125 L 641.8125 488.59375 C 642.46874 488.06641 643.0332 487.68555 643.53125 487.46875 C 644.03515 487.2461 644.54101 487.12501 645.0625 487.125 C 645.3496 487.12501 645.55859 487.13885 645.6875 487.15625 C 645.8164 487.16795 646.02343 487.209 646.28125 487.25 L 646.28125 488.9375 L 646.1875 488.9375 C 645.9414 488.8789 645.70312 488.83595 645.46875 488.8125 C 645.24023 488.7832 644.97265 488.78125 644.65625 488.78125 C 644.14648 488.78126 643.6621 488.89649 643.1875 489.125 C 642.71289 489.34767 642.25194 489.64258 641.8125 490 L 641.8125 496.96875 L 640.15625 496.96875 L 640.15625 487.125 z M 724.125 487.125 L 725.78125 487.125 L 725.78125 492.71875 C 725.78124 493.2168 725.8281 493.64259 725.875 494 C 725.9219 494.35157 726.0039 494.6543 726.15625 494.90625 C 726.31445 495.16406 726.52929 495.35156 726.78125 495.46875 C 727.0332 495.58594 727.39453 495.65625 727.875 495.65625 C 728.30273 495.65625 728.77733 495.53516 729.28125 495.3125 C 729.791 495.08985 730.24804 494.81445 730.6875 494.46875 L 730.6875 487.125 L 732.34375 487.125 L 732.34375 496.96875 L 730.6875 496.96875 L 730.6875 495.875 C 730.13086 496.31445 729.60351 496.64062 729.09375 496.875 C 728.58398 497.10937 728.02148 497.21875 727.40625 497.21875 C 726.375 497.21875 725.57422 496.9082 725 496.28125 C 724.42578 495.64844 724.125 494.71875 724.125 493.5 L 724.125 487.125 z M 742.71875 487.125 L 744.375 487.125 L 744.375 496.96875 L 742.71875 496.96875 L 742.71875 487.125 z M 753.84375 487.125 L 755.5 487.125 L 755.5 492.71875 C 755.49999 493.2168 755.5156 493.64259 755.5625 494 C 755.6094 494.35157 755.72265 494.6543 755.875 494.90625 C 756.0332 495.16406 756.2168 495.35156 756.46875 495.46875 C 756.7207 495.58594 757.11327 495.65625 757.59375 495.65625 C 758.02147 495.65625 758.46483 495.53516 758.96875 495.3125 C 759.4785 495.08985 759.96679 494.81445 760.40625 494.46875 L 760.40625 487.125 L 762.0625 487.125 L 762.0625 496.96875 L 760.40625 496.96875 L 760.40625 495.875 C 759.84961 496.31445 759.32225 496.64062 758.8125 496.875 C 758.30272 497.10937 757.74022 497.21875 757.125 497.21875 C 756.09374 497.21875 755.29297 496.9082 754.71875 496.28125 C 754.14453 495.64844 753.84375 494.71875 753.84375 493.5 L 753.84375 487.125 z M 831.375 487.125 L 833.03125 487.125 L 833.03125 492.71875 C 833.03125 493.2168 833.04685 493.64259 833.09375 494 C 833.14065 494.35157 833.22265 494.6543 833.375 494.90625 C 833.5332 495.16406 833.74805 495.35156 834 495.46875 C 834.25195 495.58594 834.61327 495.65625 835.09375 495.65625 C 835.52148 495.65625 835.99609 495.53516 836.5 495.3125 C 837.00976 495.08985 837.49803 494.81445 837.9375 494.46875 L 837.9375 487.125 L 839.5625 487.125 L 839.5625 496.96875 L 837.9375 496.96875 L 837.9375 495.875 C 837.38085 496.31445 836.82225 496.64062 836.3125 496.875 C 835.80272 497.10937 835.24023 497.21875 834.625 497.21875 C 833.59374 497.21875 832.79297 496.9082 832.21875 496.28125 C 831.64453 495.64844 831.37499 494.71875 831.375 493.5 L 831.375 487.125 z M 867.75 487.125 L 869.40625 487.125 L 869.40625 488.59375 C 870.06249 488.06641 870.62695 487.68555 871.125 487.46875 C 871.6289 487.2461 872.16601 487.12501 872.6875 487.125 C 872.9746 487.12501 873.18359 487.13885 873.3125 487.15625 C 873.4414 487.16795 873.61718 487.209 873.875 487.25 L 873.875 488.9375 L 873.78125 488.9375 C 873.53515 488.8789 873.29686 488.83595 873.0625 488.8125 C 872.83397 488.7832 872.5664 488.78125 872.25 488.78125 C 871.74023 488.78126 871.25586 488.89649 870.78125 489.125 C 870.30664 489.34767 869.8457 489.64258 869.40625 490 L 869.40625 496.96875 L 867.75 496.96875 L 867.75 487.125 z M 885.5625 487.125 L 887.375 487.125 L 890.375 494.40625 L 893.4375 487.125 L 895.15625 487.125 L 889.4375 500.5625 L 887.65625 500.5625 L 889.5 496.46875 L 885.5625 487.125 z M 651.84375 488.21875 C 650.95898 488.21876 650.24609 488.47852 649.71875 489 C 649.19726 489.52149 648.91405 490.16407 648.84375 490.9375 L 654.46875 490.9375 C 654.46275 490.07032 654.24608 489.41211 653.8125 488.9375 C 653.38475 488.46289 652.72265 488.21876 651.84375 488.21875 z M 706.65625 488.21875 C 705.77148 488.21876 705.05859 488.47852 704.53125 489 C 704.00977 489.52149 703.72656 490.16407 703.65625 490.9375 L 709.28125 490.9375 C 709.27525 490.07032 709.05858 489.41211 708.625 488.9375 C 708.19726 488.46289 707.53515 488.21876 706.65625 488.21875 z M 861.03125 488.21875 C 860.14648 488.21876 859.43359 488.47852 858.90625 489 C 858.38476 489.52149 858.07031 490.16407 858 490.9375 L 863.625 490.9375 C 863.619 490.07032 863.40234 489.41211 862.96875 488.9375 C 862.54101 488.46289 861.91015 488.21876 861.03125 488.21875 z M 604.5 488.28125 C 603.60351 488.28126 602.90429 488.59766 602.40625 489.21875 C 601.91406 489.83399 601.6875 490.79103 601.6875 492.0625 C 601.6875 493.29298 601.93945 494.20509 602.4375 494.84375 C 602.93554 495.47657 603.60937 495.8125 604.5 495.8125 C 605.3789 495.8125 606.06445 495.50196 606.5625 494.875 C 607.0664 494.24219 607.34374 493.30469 607.34375 492.0625 C 607.34374 490.79103 607.09179 489.83399 606.59375 489.21875 C 606.0957 488.59766 605.38476 488.28126 604.5 488.28125 z M 695.9375 488.4375 C 695.45703 488.43751 694.96093 488.53907 694.46875 488.75 C 693.97656 488.95509 693.51563 489.23438 693.09375 489.5625 L 693.09375 495.1875 C 693.5625 495.39843 693.97851 495.54297 694.3125 495.625 C 694.65233 495.707 695.00976 495.75 695.4375 495.75 C 696.35156 495.75 697.07812 495.44141 697.59375 494.84375 C 698.11523 494.24024 698.37499 493.28321 698.375 492 C 698.37499 490.82813 698.19921 489.94727 697.8125 489.34375 C 697.42578 488.73438 696.79882 488.43751 695.9375 488.4375 z M 824.71875 488.4375 C 824.23827 488.43751 823.74218 488.53907 823.25 488.75 C 822.75781 488.95509 822.29687 489.23438 821.875 489.5625 L 821.875 495.1875 C 822.34374 495.39843 822.75976 495.54297 823.09375 495.625 C 823.43359 495.707 823.79101 495.75 824.21875 495.75 C 825.1328 495.75 825.85937 495.44141 826.375 494.84375 C 826.89647 494.24024 827.15625 493.28321 827.15625 492 C 827.15625 490.82813 826.94921 489.94727 826.5625 489.34375 C 826.17577 488.73438 825.58007 488.43751 824.71875 488.4375 z M 635.3125 491.8125 C 634.80858 491.8418 634.21679 491.87886 633.53125 491.9375 C 632.85156 491.9961 632.30468 492.07618 631.90625 492.1875 C 631.43164 492.32227 631.04297 492.5254 630.75 492.8125 C 630.45703 493.09376 630.3125 493.50196 630.3125 494 C 630.3125 494.5625 630.47265 494.99415 630.8125 495.28125 C 631.15234 495.56251 631.67773 495.6875 632.375 495.6875 C 632.95507 495.6875 633.48828 495.56641 633.96875 495.34375 C 634.44921 495.11524 634.90233 494.84766 635.3125 494.53125 L 635.3125 491.8125 z M 670.875 491.8125 C 670.37109 491.8418 669.77929 491.87886 669.09375 491.9375 C 668.41406 491.9961 667.89843 492.07618 667.5 492.1875 C 667.02538 492.32227 666.63671 492.5254 666.34375 492.8125 C 666.05078 493.09376 665.90624 493.50196 665.90625 494 C 665.90624 494.5625 666.0664 494.99415 666.40625 495.28125 C 666.74609 495.56251 667.27148 495.6875 667.96875 495.6875 C 668.54882 495.6875 669.08202 495.56641 669.5625 495.34375 C 670.04296 495.11524 670.46484 494.84766 670.875 494.53125 L 670.875 491.8125 z M 719.375 491.8125 C 718.87109 491.8418 718.27929 491.87886 717.59375 491.9375 C 716.91406 491.9961 716.36719 492.07618 715.96875 492.1875 C 715.49414 492.32227 715.10546 492.5254 714.8125 492.8125 C 714.51953 493.09376 714.375 493.50196 714.375 494 C 714.375 494.5625 714.53515 494.99415 714.875 495.28125 C 715.21484 495.56251 715.74023 495.6875 716.4375 495.6875 C 717.01758 495.6875 717.55078 495.56641 718.03125 495.34375 C 718.51172 495.11524 718.96484 494.84766 719.375 494.53125 L 719.375 491.8125 z M 782.5 491.8125 C 781.99608 491.8418 781.40429 491.87886 780.71875 491.9375 C 780.03905 491.9961 779.49218 492.07618 779.09375 492.1875 C 778.61914 492.32227 778.26172 492.5254 777.96875 492.8125 C 777.67578 493.09376 777.53125 493.50196 777.53125 494 C 777.53125 494.5625 777.69141 494.99415 778.03125 495.28125 C 778.3711 495.56251 778.89648 495.6875 779.59375 495.6875 C 780.17382 495.6875 780.70702 495.56641 781.1875 495.34375 C 781.66796 495.11524 782.08983 494.84766 782.5 494.53125 L 782.5 491.8125 z M 809.0625 491.8125 C 808.55858 491.8418 807.96679 491.87886 807.28125 491.9375 C 806.60155 491.9961 806.05468 492.07618 805.65625 492.1875 C 805.18164 492.32227 804.79297 492.5254 804.5 492.8125 C 804.20703 493.09376 804.0625 493.50196 804.0625 494 C 804.0625 494.5625 804.22266 494.99415 804.5625 495.28125 C 804.90234 495.56251 805.42773 495.6875 806.125 495.6875 C 806.70507 495.6875 807.23827 495.56641 807.71875 495.34375 C 808.19921 495.11524 808.65233 494.84766 809.0625 494.53125 L 809.0625 491.8125 z M 775.90625 550.625 L 777.625 550.625 L 777.625 555.75 L 784.15625 555.75 L 784.15625 550.625 L 785.90625 550.625 L 785.90625 563.71875 L 784.15625 563.71875 L 784.15625 557.3125 L 777.625 557.3125 L 777.625 563.71875 L 775.90625 563.71875 L 775.90625 550.625 z M 805 553.625 C 806.18358 553.62501 807.125 554.07228 807.78125 554.96875 C 808.44335 555.85939 808.78124 557.09961 808.78125 558.6875 C 808.78124 559.48438 808.666 560.2129 808.4375 560.875 C 808.20897 561.53126 807.88475 562.10547 807.46875 562.5625 C 807.08202 562.99609 806.62109 563.32226 806.09375 563.5625 C 805.57226 563.79687 805.02343 563.90625 804.4375 563.90625 C 803.92773 563.90625 803.44726 563.86129 803.03125 563.75 C 802.62109 563.63867 802.20898 563.45313 801.78125 563.21875 L 801.78125 567.34375 L 800.125 567.34375 L 800.125 553.90625 L 801.78125 553.90625 L 801.78125 554.9375 C 802.2207 554.56837 802.70507 554.2461 803.25 554 C 803.80077 553.74805 804.3789 553.62501 805 553.625 z M 816.21875 553.625 C 817.40234 553.62501 818.34374 554.07228 819 554.96875 C 819.6621 555.85939 819.96874 557.09961 819.96875 558.6875 C 819.96874 559.48438 819.8535 560.2129 819.625 560.875 C 819.39647 561.53126 819.10351 562.10547 818.6875 562.5625 C 818.30077 562.99609 817.83983 563.32226 817.3125 563.5625 C 816.79101 563.79687 816.24218 563.90625 815.65625 563.90625 C 815.14647 563.90625 814.66601 563.86129 814.25 563.75 C 813.83984 563.63867 813.42773 563.45313 813 563.21875 L 813 567.34375 L 811.34375 567.34375 L 811.34375 553.90625 L 813 553.90625 L 813 554.9375 C 813.43945 554.56837 813.92382 554.2461 814.46875 554 C 815.01953 553.74805 815.59765 553.62501 816.21875 553.625 z M 792.65625 553.65625 C 793.34765 553.65626 793.95898 553.72656 794.46875 553.84375 C 794.98437 553.95508 795.40624 554.13087 795.78125 554.40625 C 796.15038 554.67579 796.43163 555.04103 796.625 555.46875 C 796.81835 555.89649 796.93749 556.4297 796.9375 557.0625 L 796.9375 563.71875 L 795.28125 563.71875 L 795.28125 562.65625 C 795.13475 562.75585 794.93945 562.91211 794.6875 563.09375 C 794.4414 563.26953 794.20312 563.39454 793.96875 563.5 C 793.69335 563.63477 793.38866 563.75586 793.03125 563.84375 C 792.67382 563.93745 792.23047 564 791.75 564 C 790.86523 564 790.11523 563.71093 789.5 563.125 C 788.88477 562.53906 788.59375 561.7832 788.59375 560.875 C 788.59375 560.13086 788.74609 559.51953 789.0625 559.0625 C 789.38476 558.59961 789.84571 558.23243 790.4375 557.96875 C 791.03516 557.70509 791.75586 557.53126 792.59375 557.4375 C 793.43164 557.3438 794.3203 557.26564 795.28125 557.21875 L 795.28125 556.96875 C 795.28124 556.59376 795.2285 556.27735 795.09375 556.03125 C 794.96483 555.78516 794.77733 555.60939 794.53125 555.46875 C 794.29687 555.334 794.01562 555.23438 793.6875 555.1875 C 793.35937 555.1406 793.01366 555.125 792.65625 555.125 C 792.22265 555.12501 791.7207 555.19532 791.1875 555.3125 C 790.6543 555.42384 790.09961 555.56446 789.53125 555.78125 L 789.46875 555.78125 L 789.46875 554.125 C 789.79101 554.0371 790.23437 553.91798 790.84375 553.8125 C 791.45312 553.70704 792.06445 553.65626 792.65625 553.65625 z M 821.46875 553.90625 L 823.25 553.90625 L 826.28125 561.1875 L 829.3125 553.90625 L 831.0625 553.90625 L 825.3125 567.34375 L 823.5625 567.34375 L 825.375 563.25 L 821.46875 553.90625 z M 804.59375 555.1875 C 804.11914 555.18751 803.63671 555.29493 803.15625 555.5 C 802.67577 555.70508 802.2207 555.97852 801.78125 556.3125 L 801.78125 561.875 C 802.25 562.08594 802.66601 562.23633 803 562.3125 C 803.33983 562.3887 803.69726 562.4375 804.125 562.4375 C 805.04492 562.4375 805.76562 562.12109 806.28125 561.5 C 806.79687 560.87891 807.06249 559.93751 807.0625 558.71875 C 807.06249 557.53517 806.87303 556.67969 806.46875 556.09375 C 806.06444 555.50782 805.43164 555.18751 804.59375 555.1875 z M 815.8125 555.1875 C 815.33788 555.18751 814.85546 555.29493 814.375 555.5 C 813.89453 555.70508 813.43945 555.97852 813 556.3125 L 813 561.875 C 813.46874 562.08594 813.85351 562.23633 814.1875 562.3125 C 814.52734 562.3887 814.91601 562.4375 815.34375 562.4375 C 816.26366 562.4375 816.98436 562.12109 817.5 561.5 C 818.01561 560.87891 818.28125 559.93751 818.28125 558.71875 C 818.28125 557.53517 818.06054 556.67969 817.65625 556.09375 C 817.25194 555.50782 816.65038 555.18751 815.8125 555.1875 z M 795.28125 558.5625 C 794.77733 558.5918 794.18554 558.62896 793.5 558.6875 C 792.8203 558.7461 792.27343 558.85743 791.875 558.96875 C 791.40039 559.10352 791.01172 559.30665 790.71875 559.59375 C 790.42578 559.87501 790.28125 560.25195 790.28125 560.75 C 790.28125 561.3125 790.47266 561.74414 790.8125 562.03125 C 791.15235 562.3125 791.64648 562.4375 792.34375 562.4375 C 792.92382 562.4375 793.45702 562.34766 793.9375 562.125 C 794.41796 561.89649 794.87108 561.62891 795.28125 561.3125 L 795.28125 558.5625 z M 844.5625 585.78125 L 846.21875 585.78125 L 846.21875 590.75 C 846.73437 590.32227 847.29297 589.959 847.84375 589.71875 C 848.39453 589.47853 848.95117 589.37501 849.53125 589.375 C 850.59179 589.37501 851.38085 589.70509 851.9375 590.34375 C 852.49413 590.98243 852.78124 591.89258 852.78125 593.09375 L 852.78125 599.46875 L 851.125 599.46875 L 851.125 593.875 C 851.12499 593.42384 851.1152 592.98633 851.0625 592.59375 C 851.0098 592.19532 850.89062 591.91016 850.75 591.6875 C 850.60351 591.44141 850.40038 591.2422 850.125 591.125 C 849.8496 591.00197 849.50195 590.93751 849.0625 590.9375 C 848.61132 590.93751 848.14843 591.0586 847.65625 591.28125 C 847.16406 591.50391 846.66992 591.7793 846.21875 592.125 L 846.21875 599.46875 L 844.5625 599.46875 L 844.5625 585.78125 z M 874.21875 585.78125 L 876.15625 585.78125 L 875.78125 590.875 L 874.59375 590.875 L 874.21875 585.78125 z M 811.5 586.375 L 813.84375 586.375 L 817.34375 593.65625 L 820.71875 586.375 L 823.125 586.375 L 823.125 599.46875 L 821.40625 599.46875 L 821.40625 588.1875 L 817.75 595.875 L 816.71875 595.875 L 813.125 588.1875 L 813.125 599.46875 L 811.5 599.46875 L 811.5 586.375 z M 837.5 586.8125 L 839.15625 586.8125 L 839.15625 589.65625 L 842.5625 589.65625 L 842.5625 591.03125 L 839.15625 591.03125 L 839.15625 595.5 C 839.15624 596.01563 839.164 596.42578 839.1875 596.71875 C 839.2109 597.00586 839.29687 597.2793 839.4375 597.53125 C 839.5664 597.76563 839.74609 597.95117 839.96875 598.0625 C 840.19726 598.16797 840.5371 598.21875 841 598.21875 C 841.26952 598.21875 841.55077 598.16991 841.84375 598.09375 C 842.13671 598.01175 842.37109 597.92774 842.5 597.875 L 842.5625 597.875 L 842.5625 599.375 C 842.25195 599.457 841.93164 599.50977 841.5625 599.5625 C 841.19921 599.6152 840.84961 599.65625 840.5625 599.65625 C 839.56055 599.65625 838.80273 599.38281 838.28125 598.84375 C 837.75976 598.30469 837.5 597.43945 837.5 596.25 L 837.5 591.03125 L 836.40625 591.03125 L 836.40625 589.65625 L 837.5 589.65625 L 837.5 586.8125 z M 830.375 589.375 C 831.75195 589.37501 832.86718 589.84962 833.6875 590.78125 C 834.5078 591.70704 834.90624 592.9629 834.90625 594.5625 C 834.90624 596.16211 834.5078 597.41797 833.6875 598.34375 C 832.86718 599.26953 831.75195 599.75 830.375 599.75 C 828.98633 599.75 827.88281 599.26953 827.0625 598.34375 C 826.24804 597.41797 825.84374 596.16211 825.84375 594.5625 C 825.84374 592.9629 826.24804 591.70704 827.0625 590.78125 C 827.88281 589.84962 828.98633 589.37501 830.375 589.375 z M 860.03125 589.375 C 861.35546 589.37501 862.3789 589.75782 863.09375 590.53125 C 863.81445 591.30469 864.18749 592.41993 864.1875 593.84375 L 864.1875 594.71875 L 856.9375 594.71875 C 856.9375 595.32227 857.03709 595.86133 857.21875 596.3125 C 857.40039 596.75782 857.65234 597.11914 857.96875 597.40625 C 858.27343 597.6875 858.64648 597.89062 859.0625 598.03125 C 859.48437 598.17187 859.93358 598.25 860.4375 598.25 C 861.10546 598.25 861.79492 598.10742 862.46875 597.84375 C 863.14843 597.57422 863.61913 597.32032 863.90625 597.0625 L 864 597.0625 L 864 598.875 C 863.44335 599.10938 862.86132 599.31054 862.28125 599.46875 C 861.70116 599.62695 861.10742 599.6875 860.46875 599.6875 C 858.83984 599.6875 857.57031 599.25391 856.65625 598.375 C 855.74219 597.49024 855.28125 596.24805 855.28125 594.625 C 855.28125 593.01954 855.7207 591.72462 856.59375 590.78125 C 857.47265 589.8379 858.60156 589.37501 860.03125 589.375 z M 882.59375 589.40625 C 883.17969 589.40626 883.77734 589.47847 884.375 589.625 C 884.97851 589.76563 885.47656 589.95118 885.875 590.15625 L 885.875 591.90625 L 885.78125 591.90625 C 885.35937 591.59571 884.85351 591.33595 884.25 591.125 C 883.64648 590.90822 883.04882 590.81251 882.46875 590.8125 C 881.86523 590.81251 881.35351 590.92189 880.9375 591.15625 C 880.52148 591.38478 880.31249 591.73048 880.3125 592.1875 C 880.31249 592.59181 880.43554 592.88868 880.6875 593.09375 C 880.93359 593.29884 881.32421 593.46485 881.875 593.59375 C 882.17968 593.66405 882.53124 593.74219 882.90625 593.8125 C 883.2871 593.8828 883.59179 593.94141 883.84375 594 C 884.61132 594.17578 885.20898 594.47852 885.625 594.90625 C 886.04101 595.33985 886.24999 595.91016 886.25 596.625 C 886.24999 597.52148 885.86913 598.26954 885.125 598.84375 C 884.38671 599.41797 883.37695 599.6875 882.09375 599.6875 C 881.36719 599.6875 880.70312 599.60738 880.09375 599.4375 C 879.49023 599.26172 879.00391 599.08008 878.59375 598.875 L 878.59375 597.03125 L 878.65625 597.03125 C 879.17773 597.42383 879.76757 597.73437 880.40625 597.96875 C 881.04491 598.19726 881.66406 598.3125 882.25 598.3125 C 882.97656 598.3125 883.52734 598.17187 883.9375 597.9375 C 884.34765 597.70312 884.5625 597.34765 884.5625 596.84375 C 884.5625 596.45703 884.4414 596.16797 884.21875 595.96875 C 883.99609 595.76953 883.57031 595.60938 882.9375 595.46875 C 882.70312 595.41605 882.41211 595.35157 882.03125 595.28125 C 881.65625 595.21095 881.31055 595.11328 881 595.03125 C 880.13867 594.80274 879.51953 594.47071 879.15625 594.03125 C 878.79883 593.58595 878.625 593.05079 878.625 592.40625 C 878.625 592.00196 878.71091 591.60743 878.875 591.25 C 879.04492 590.89259 879.28515 590.59376 879.625 590.3125 C 879.95312 590.03712 880.37109 589.81447 880.875 589.65625 C 881.38476 589.4922 881.9668 589.40626 882.59375 589.40625 z M 866.6875 589.65625 L 868.34375 589.65625 L 868.34375 591.09375 C 869 590.56641 869.56445 590.18555 870.0625 589.96875 C 870.5664 589.7461 871.10351 589.65626 871.625 589.65625 C 871.91211 589.65626 872.12108 589.6701 872.25 589.6875 C 872.3789 589.6992 872.55468 589.709 872.8125 589.75 L 872.8125 591.4375 L 872.71875 591.4375 C 872.47264 591.3789 872.23437 591.33595 872 591.3125 C 871.77148 591.2832 871.5039 591.28125 871.1875 591.28125 C 870.67773 591.28126 870.19335 591.39649 869.71875 591.625 C 869.24413 591.84767 868.7832 592.14259 868.34375 592.5 L 868.34375 599.46875 L 866.6875 599.46875 L 866.6875 589.65625 z M 859.96875 590.75 C 859.08398 590.75001 858.37109 591.00978 857.84375 591.53125 C 857.32227 592.05275 857.00781 592.69532 856.9375 593.46875 L 862.5625 593.46875 C 862.5565 592.60157 862.33983 591.91212 861.90625 591.4375 C 861.47851 590.9629 860.84765 590.75001 859.96875 590.75 z M 830.375 590.8125 C 829.47851 590.81251 828.77929 591.09767 828.28125 591.71875 C 827.78905 592.33399 827.5625 593.29102 827.5625 594.5625 C 827.5625 595.79297 827.81445 596.73633 828.3125 597.375 C 828.81055 598.00781 829.48437 598.3125 830.375 598.3125 C 831.2539 598.3125 831.93945 598.00195 832.4375 597.375 C 832.9414 596.74219 833.21874 595.80469 833.21875 594.5625 C 833.21874 593.29102 832.96679 592.33399 832.46875 591.71875 C 831.9707 591.09767 831.25976 590.81251 830.375 590.8125 z M 866.78125 620.5625 L 870.03125 620.5625 C 871.30859 620.56251 872.34374 620.6563 873.09375 620.84375 C 873.8496 621.0254 874.47851 621.2715 875 621.59375 C 875.89062 622.1504 876.59569 622.88673 877.09375 623.8125 C 877.59178 624.73829 877.81249 625.85352 877.8125 627.125 C 877.81249 628.31446 877.55273 629.37696 877.03125 630.34375 C 876.51562 631.31055 875.83007 632.06055 874.96875 632.59375 C 874.37109 632.9629 873.70702 633.24219 872.96875 633.40625 C 872.23632 633.57031 871.26366 633.65625 870.0625 633.65625 L 866.78125 633.65625 L 866.78125 620.5625 z M 868.5 622.0625 L 868.5 632.15625 L 870.15625 632.15625 C 870.99413 632.15625 871.72265 632.09182 872.34375 631.96875 C 872.97069 631.84571 873.54101 631.61523 874.0625 631.28125 C 874.71288 630.86523 875.17772 630.33594 875.5 629.65625 C 875.82811 628.97657 875.99999 628.11329 876 627.09375 C 875.99999 626.06837 875.82616 625.20313 875.46875 624.5 C 875.11132 623.79688 874.58398 623.24805 873.875 622.84375 C 873.35937 622.55079 872.79882 622.36134 872.21875 622.25 C 871.63866 622.13283 870.96484 622.06251 870.15625 622.0625 L 868.5 622.0625 z M 883.875 623.59375 C 884.5664 623.59376 885.17773 623.66407 885.6875 623.78125 C 886.20312 623.89259 886.65624 624.06836 887.03125 624.34375 C 887.40038 624.61329 887.68163 624.97853 887.875 625.40625 C 888.06835 625.834 888.15624 626.3672 888.15625 627 L 888.15625 633.65625 L 886.5 633.65625 L 886.5 632.59375 C 886.35351 632.69335 886.15819 632.84961 885.90625 633.03125 C 885.66015 633.20703 885.42187 633.33204 885.1875 633.4375 C 884.91211 633.57227 884.60741 633.69336 884.25 633.78125 C 883.89257 633.87495 883.48046 633.9375 883 633.9375 C 882.11523 633.9375 881.36523 633.61719 880.75 633.03125 C 880.13476 632.44531 879.8125 631.7207 879.8125 630.8125 C 879.8125 630.06836 879.96484 629.45703 880.28125 629 C 880.60351 628.53711 881.06445 628.16992 881.65625 627.90625 C 882.2539 627.64258 882.97461 627.46876 883.8125 627.375 C 884.65039 627.2813 885.53906 627.20313 886.5 627.15625 L 886.5 626.90625 C 886.5 626.53126 886.44724 626.21485 886.3125 625.96875 C 886.18358 625.72267 885.99608 625.54689 885.75 625.40625 C 885.51561 625.2715 885.23436 625.17189 884.90625 625.125 C 884.57811 625.0781 884.23241 625.0625 883.875 625.0625 C 883.4414 625.06251 882.9707 625.10157 882.4375 625.21875 C 881.90429 625.33009 881.3496 625.50196 880.78125 625.71875 L 880.6875 625.71875 L 880.6875 624.03125 C 881.00976 623.94335 881.48437 623.85548 882.09375 623.75 C 882.70312 623.64454 883.2832 623.59376 883.875 623.59375 z M 890.25 623.84375 L 892.0625 623.84375 L 895.0625 631.125 L 898.125 623.84375 L 899.84375 623.84375 L 894.125 637.28125 L 892.34375 637.28125 L 894.1875 633.1875 L 890.25 623.84375 z M 886.5 628.5 C 885.99609 628.5293 885.40429 628.56636 884.71875 628.625 C 884.03906 628.6836 883.49218 628.76368 883.09375 628.875 C 882.61913 629.00977 882.26171 629.24415 881.96875 629.53125 C 881.67578 629.81251 881.53124 630.18946 881.53125 630.6875 C 881.53124 631.25 881.69141 631.68165 882.03125 631.96875 C 882.37109 632.25 882.89648 632.375 883.59375 632.375 C 884.17382 632.375 884.70702 632.28516 885.1875 632.0625 C 885.66796 631.83399 886.08984 631.56641 886.5 631.25 L 886.5 628.5 z "
       transform="translate(0,-524.758)"
       id="path5" /></g><g
     inkscape:groupmode="layer"
     id="layer2"
     inkscape:label="Text" /></svg>