<?xml version="1.0" encoding="UTF-8" standalone="no"?>
<!-- Created with Inkscape (http://www.inkscape.org/) -->

<svg
   xmlns:dc="http://purl.org/dc/elements/1.1/"
   xmlns:cc="http://creativecommons.org/ns#"
   xmlns:rdf="http://www.w3.org/1999/02/22-rdf-syntax-ns#"
   xmlns:svg="http://www.w3.org/2000/svg"
   xmlns="http://www.w3.org/2000/svg"
   xmlns:sodipodi="http://sodipodi.sourceforge.net/DTD/sodipodi-0.dtd"
   xmlns:inkscape="http://www.inkscape.org/namespaces/inkscape"
   width="990"
   height="765"
   id="svg2"
   version="1.1"
   inkscape:version="0.48.5 r10040"
   sodipodi:docname="OwlOnTree-Owl.svg">
  <defs
     id="defs4" />
  <sodipodi:namedview
     id="base"
     pagecolor="#ffffff"
     bordercolor="#666666"
     borderopacity="1.0"
     inkscape:pageopacity="0.0"
     inkscape:pageshadow="2"
     inkscape:zoom="0.71762048"
     inkscape:cx="417.01163"
     inkscape:cy="369.06994"
     inkscape:document-units="px"
     inkscape:current-layer="layer2"
     showgrid="false"
     showguides="true"
     inkscape:guide-bbox="true"
     inkscape:window-width="1440"
     inkscape:window-height="851"
     inkscape:window-x="0"
     inkscape:window-y="0"
     inkscape:window-maximized="1"
     inkscape:snap-global="false">
    <sodipodi:guide
       orientation="1,0"
       position="495,0"
       id="guide2985" />
    <sodipodi:guide
       orientation="1,0"
       position="803.98041,505.58135"
       id="guide3032" />
    <sodipodi:guide
       orientation="0,1"
       position="288.45331,539.28227"
       id="guide3844" />
    <sodipodi:guide
       orientation="0,1"
       position="274.51836,380.42393"
       id="guide4169" />
  </sodipodi:namedview>
  <metadata
     id="metadata7">
    <rdf:RDF>
      <cc:Work
         rdf:about="">
        <dc:format>image/svg+xml</dc:format>
        <dc:type
           rdf:resource="http://purl.org/dc/dcmitype/StillImage" />
        <dc:title></dc:title>
      </cc:Work>
    </rdf:RDF>
  </metadata>
  <g
     inkscape:groupmode="layer"
     id="layer2"
     inkscape:label="Owl Body"
     sodipodi:insensitive="true"
     style="display:inline">
    <path
       style="fill:#aa4400;stroke:#000000;stroke-width:1px;stroke-linecap:butt;stroke-linejoin:miter;stroke-opacity:1"
       d="M 801.40625,226.90625 C 788.03116,226.7213 755.94242,231.64671 755,240.5 c -13,-9.47224 -16.5,-12 -16.5,-12 L 735,256 c 0,0 -7.3819,19.78497 -9,29.5 -7.1591,42.98299 2.70622,68.37673 18,80 12.5,9.5 21,14.5 30,15.5 29.98041,4.75664 29.9717,4.54662 59.625,0 9,-1 17.5,-6 30,-15.5 15.29378,-11.62327 25.1591,-37.01701 18,-80 -1.6181,-9.71503 -9,-29.5 -9,-29.5 l -3.5,-27.5 c 0,0 -3.5,2.52776 -16.5,12 0,-5.98739 -37.30655,-14.5993 -48.8125,-13.5 -0.7106,-0.0582 -1.51458,-0.0814 -2.40625,-0.0937 z"
       id="path3025"
       inkscape:connector-curvature="0"
       sodipodi:nodetypes="scccssccssccccs" />
  </g>
</svg>
