<?xml version="1.0" encoding="UTF-8" standalone="no"?>
<!-- Created with Inkscape (http://www.inkscape.org/) -->

<svg
   xmlns:dc="http://purl.org/dc/elements/1.1/"
   xmlns:cc="http://creativecommons.org/ns#"
   xmlns:rdf="http://www.w3.org/1999/02/22-rdf-syntax-ns#"
   xmlns:svg="http://www.w3.org/2000/svg"
   xmlns="http://www.w3.org/2000/svg"
   xmlns:sodipodi="http://sodipodi.sourceforge.net/DTD/sodipodi-0.dtd"
   xmlns:inkscape="http://www.inkscape.org/namespaces/inkscape"
   width="765"
   height="990"
   id="svg2"
   version="1.1"
   inkscape:version="0.48.2 r9819"
   sodipodi:docname="s_the_best.dxf">
  <defs
     id="defs4" />
  <sodipodi:namedview
     id="base"
     pagecolor="#ffffff"
     bordercolor="#666666"
     borderopacity="1.0"
     inkscape:pageopacity="0.0"
     inkscape:pageshadow="2"
     inkscape:zoom="16.607248"
     inkscape:cx="727.48912"
     inkscape:cy="965.0105"
     inkscape:document-units="in"
     inkscape:current-layer="layer1"
     showgrid="false"
     showguides="true"
     inkscape:guide-bbox="true"
     inkscape:snap-global="false"
     inkscape:window-width="1366"
     inkscape:window-height="706"
     inkscape:window-x="-8"
     inkscape:window-y="-8"
     inkscape:window-maximized="1" />
  <metadata
     id="metadata7">
    <rdf:RDF>
      <cc:Work
         rdf:about="">
        <dc:format>image/svg+xml</dc:format>
        <dc:type
           rdf:resource="http://purl.org/dc/dcmitype/StillImage" />
        <dc:title></dc:title>
      </cc:Work>
    </rdf:RDF>
  </metadata>
  <g
     inkscape:label="Layer 1"
     inkscape:groupmode="layer"
     id="layer1"
     style="display:inline"
     transform="translate(0,-62.362183)">
    <path
       style="font-size:48px;font-style:normal;font-variant:normal;font-weight:normal;font-stretch:normal;line-height:125%;letter-spacing:0px;word-spacing:0px;fill:#000000;fill-opacity:1;stroke:none;font-family:Dancing Script;-inkscape-font-specification:Dancing Script"
       inkscape:connector-curvature="0"
       id="path2992"
       d="m 601.84391,69.47655 c 0,-1.0557 0.31982,-2.1756 0.95948,-3.3597 0.63964,-1.184 1.2954,-1.7761 1.96728,-1.7761 0.3203,0 0.60058,0.136 0.84082,0.408 0.24023,0.272 0.36034,0.5842 0.36035,0.9367 -0.28809,0.2872 -0.56031,0.5989 -0.81665,0.9353 -0.25635,0.3365 -0.46436,0.6326 -0.62402,0.8885 -0.15968,0.2559 -0.34352,0.5837 -0.55151,0.9836 -0.20802,0.3999 -0.36036,0.6961 -0.45704,0.8884 l -0.479,0.9595 c -0.22462,0.4483 -0.35255,0.7525 -0.38379,0.9126 -0.54395,-0.3203 -0.81592,-0.9126 -0.81592,-1.7768 z" />
    <path
       style="font-size:48px;font-style:normal;font-variant:normal;font-weight:normal;font-stretch:normal;line-height:125%;letter-spacing:0px;word-spacing:0px;fill:#000000;fill-opacity:1;stroke:none;font-family:Dancing Script;-inkscape-font-specification:Dancing Script"
       sodipodi:nodetypes="ssscccscscscccccccscsscscccscccccccc"
       inkscape:connector-curvature="0"
       id="path2994"
       d="m 600.59587,95.06145 c 0,-0.8642 0.13598,-1.5925 0.40796,-2.1848 0.27197,-0.5923 0.57592,-0.9924 0.91186,-1.2004 0.33594,-0.208 0.68774,-0.3919 1.05542,-0.5516 0.36767,-0.1596 0.59985,-0.2878 0.69653,-0.3845 2.04785,-2.2392 3.63183,-4.559 4.75196,-6.9594 l 0,-0.5757 c -10e-6,-1.0879 0.18383,-1.9038 0.55151,-2.4478 0.36767,-0.5439 0.80761,-0.8159 1.31982,-0.8159 0.5122,0 0.76831,0.208 0.76832,0.624 -10e-6,0.063 -0.0481,0.3194 -0.14429,0.7676 -0.0962,0.4483 -0.1443,0.896 -0.14429,1.3433 -10e-6,0.9599 0.41601,2.7361 1.24805,5.3283 0.83202,2.5923 1.24803,4.6726 1.24804,6.241 -10e-6,0.8633 0.0517,0.920675 -0.13969,1.624775 2.36815,-0.416 4.19485,-2.0347 5.85893,-5.2349 l 0.35638,2.353692 c -1.11916,3.2959 -3.65695,4.859075 -7.01729,5.370875 -1.41798,2.613628 -2.62572,2.988558 -5.72922,2.988558 -2.08008,0 -3.6001,-0.624 -4.56006,-1.872 -0.95996,-1.2481 -1.43994,-2.7198 -1.43994,-4.4151 z m 1.98887,0.973877 c 0.21686,1.196303 0.31752,1.231145 1.03774,2.175045 0.72021,0.9438 1.885,1.458278 3.0686,1.458278 1.47265,0 2.27952,-0.04333 2.82347,-1.610728 -1.28028,-0.2559 -2.74654,-0.376796 -3.80269,-1.129296 -1.05615,-0.7524 -1.8562,-1.5764 -2.40014,-2.4719 -0.61895,0.287469 -0.85473,0.873905 -0.72698,1.578601 z m 1.91314,-3.895447 c 1.18457,2.5283 2.85264,3.106545 5.63585,3.713945 0.12792,-0.832 0.0129,-0.889175 0.0129,-1.561075 -10e-6,-0.8955 -0.0798,-1.8394 -0.2395,-2.8316 -0.15968,-0.9921 -0.38356,-2.0881 -0.67164,-3.2878 -0.28809,-1.1997 0.10965,-0.213294 -0.35457,-1.610445 -1.63282,2.6885 -2.91138,4.105275 -4.38306,5.576975 z" />
    <path
       style="font-size:48px;font-style:normal;font-variant:normal;font-weight:normal;font-stretch:normal;line-height:125%;letter-spacing:0px;word-spacing:0px;fill:#000000;fill-opacity:1;stroke:none;font-family:Dancing Script;-inkscape-font-specification:Dancing Script"
       d="m 658.93927,64.64125 c -1.34377,0 -3.18019,1.9093 -5.5,5.7813 -2.31984,3.8721 -4.36427,8.3199 -6.15625,13.3437 -1.02253,2.8667 -1.74844,5.4045 -2.1875,7.5938 -1.2167,2.438 -2.60984,4.3741 -4.15625,5.7812 -1.60011,1.4561 -3.21193,2.1876 -4.84375,2.1876 -0.95997,0 -1.64649,-0.2989 -2.0625,-0.875 -0.41602,-0.5761 -0.62501,-1.5606 -0.625,-3 -10e-6,-2.9444 0.31954,-5.501681 2.07931,-9.501681 l 0.71875,0 0.21875,0 c 2.08006,0 4.82713,-0.1786 8.21875,-0.5624 l 0.57694,-1.810919 c -1.91994,0.1925 -4.21974,0.3124 -6.875,0.3124 l -1.78125,0 c 0.73632,-1.5682 1.67675,-3.3598 2.8125,-5.3437 1.13573,-1.9839 2.00096,-3.5659 2.625,-4.75 0.62401,-1.184 0.93748,-2.0195 0.9375,-2.5 -2e-5,-0.3193 -0.10451,-0.558 -0.3125,-0.75 -0.20802,-0.1918 -0.43166,-0.3125 -0.6875,-0.3125 -0.92775,0 -2.1963,1.3595 -3.8125,4.0312 -1.61622,2.672 -3.12403,5.8214 -4.53125,9.4688 -0.25684,0 -0.97364,-0.06 -2.125,-0.1875 l -0.54569,1.779619 c 0.38378,0.1279 0.95117,0.2784 1.71875,0.4063 -1.85547,4.9599 -2.20431,7.874681 -2.20431,10.626581 0,3.168 1.40234,4.75 4.25,4.75 2.208,0 4.32762,-0.8803 6.34375,-2.6562 1.8205,-1.6037 2.64167,-2.3286 3.65625,-4.5 -0.063,0.625 -0.0937,1.2293 -0.0937,1.7812 0,1.3447 0.19482,2.5083 0.5625,3.5 0.36767,0.9917 0.83007,1.5 1.40625,1.5 0.60839,0 1.2495,-0.6865 1.9375,-2.0625 0.68798,-1.3759 1.34569,-2.8985 1.9375,-4.5625 0.59179,-1.6641 1.36766,-3.1865 2.34375,-4.5625 0.97606,-1.3759 1.97557,-2.0625 3.03125,-2.0625 1.21678,0 1.84373,0.745 1.84375,2.2812 -2e-5,0.7998 -0.25392,2.0537 -0.75,3.75 -0.49611,1.6963 -0.75002,2.8605 -0.75,3.5 -2e-5,0.8965 0.2993,1.6279 0.875,2.1876 0.57567,0.5596 1.38084,0.8437 2.4375,0.8437 1.79197,0 3.50828,-0.7758 5.15625,-2.3437 0.67992,-0.6469 1.29589,-1.3936 1.875,-2.1876 0.0134,1.6021 0.53648,2.9115 1.53125,3.9376 1.00829,1.04 2.45605,1.5624 4.34375,1.5624 2.40038,0 4.72801,-0.8656 7,-2.5937 2.27196,-1.728 4.03319,-4.0263 5.3125,-6.875 l -0.5625,-0.4375 c -1.24806,2.3994 -2.85988,4.4302 -4.84375,6.0625 -1.9839,1.6323 -3.95411,2.4375 -5.90625,2.4375 -2.52833,0 -3.81251,-1.3428 -3.8125,-4.0312 -10e-6,-0.6084 0.0908,-1.1748 0.21875,-1.7188 2.94433,-0.288 5.66014,-1.333 8.15625,-3.125 2.49608,-1.792 3.74998,-3.8515 3.75,-6.1875 -2e-5,-1.9511 -1.01564,-2.9375 -3,-2.9375 -2.75197,0 -5.46827,1.583 -8.15625,4.7188 -2.14616,2.5036 -3.41114,4.9308 -3.84375,7.3124 -0.67513,1.0542 -1.43814,2.0048 -2.28125,2.875 -1.47219,1.5195 -2.75588,2.2813 -3.84375,2.2813 -0.95998,0 -1.43752,-0.5967 -1.4375,-1.8125 -2e-5,-0.7354 0.34324,-1.9893 1.03125,-3.7812 0.68797,-1.7919 1.03123,-3.2247 1.03125,-4.2813 -2e-5,-1.1836 -0.29836,-2.2144 -0.90625,-3.0625 -0.60793,-0.8481 -1.50295,-1.25 -2.71875,-1.25 -3.64845,0 -6.90235,4.1182 -9.75,12.4062 -0.0635,-0.5762 -0.0937,-1.1132 -0.0937,-1.625 -1e-5,-3.5205 0.59765,-6.6542 1.78125,-9.4374 1.79198,-1.0879 3.55272,-2.8194 5.3125,-5.1876 1.75975,-2.368 3.16307,-4.7866 4.1875,-7.2187 1.02439,-2.4321 1.53123,-4.4022 1.53125,-5.9063 -2e-5,-0.7675 -0.1343,-1.4384 -0.40625,-2.0624 -0.27199,-0.6241 -0.67482,-0.9376 -1.1875,-0.9376 z m -0.25,3.875 c 0.12791,0 0.21873,0.1192 0.21875,0.375 -2e-5,1.4083 -0.97121,3.9014 -2.875,7.4376 -1.90382,3.5361 -3.85841,6.1181 -5.90625,7.75 0.73632,-2.4004 1.7202,-4.8785 3,-7.4063 1.27977,-2.5278 2.45995,-4.5127 3.5,-5.9687 1.04002,-1.4561 1.71092,-2.1876 2.0625,-2.1876 z m 19.875,14.5938 c 0.67186,0 0.99999,0.3574 1,1.0938 -10e-6,1.8242 -1.0298,3.5561 -3.09375,5.1562 -2.06398,1.6001 -4.22853,2.7939 -6.46875,3.5938 0.67187,-2.3681 1.89599,-4.5914 3.65625,-6.6876 1.76024,-2.0961 3.40233,-3.1562 4.90625,-3.1562 z"
       id="path2996"
       inkscape:connector-curvature="0"
       sodipodi:nodetypes="sssccsscccsccscscccscccccssccssscccsccccssccscccssccscsccssccccscsccccsssscccscsscsccs" />
    <path
       style="font-size:48px;font-style:normal;font-variant:normal;font-weight:normal;font-stretch:normal;line-height:125%;letter-spacing:0px;word-spacing:0px;fill:#000000;fill-opacity:1;stroke:none;font-family:Dancing Script;-inkscape-font-specification:Dancing Script"
       d="m 710.03302,64.64125 c -1.28029,0 -3.13136,1.94 -5.53125,5.8438 -2.39991,3.9038 -4.56397,8.4419 -6.5,13.5938 -1.93604,5.1519 -2.90624,9.2412 -2.90625,12.2812 1e-5,1.8887 0.41797,3.3657 1.25,4.4375 0.83203,1.0718 2.08691,1.5937 3.71875,1.5937 2.97656,0 5.51269,-1.7607 7.625,-5.3124 0.47948,0.096 0.98729,0.1562 1.53125,0.1562 1.82216,0 3.35453,-0.6857 4.625,-1.9688 -10e-4,0.063 0,0.1247 0,0.1876 0,1.6316 0.52295,2.9598 1.53125,4 1.0083,1.0398 2.45605,1.5624 4.34375,1.5624 2.40038,0 4.72802,-0.8656 7,-2.5937 1.08897,-0.8282 2.04533,-1.7893 2.90625,-2.875 0.0863,1.4857 0.5422,2.8141 1.40625,3.9375 0.95996,1.248 2.48242,1.875 4.5625,1.875 3.10351,0 5.06665,-1.07921 6.05885,-3.735406 2.30204,-0.3506 4.06241,-1.372 5.3125,-3.0312 -0.0805,0.6916 -0.0589,1.061706 -0.0589,1.672806 0,3.1681 1.43359,4.75 4.28125,4.75 2.208,0 4.32763,-0.8803 6.34375,-2.6562 2.0161,-1.7759 2.81639,-2.4344 4,-5.2188 l 0.15625,-2.0937 c -1.24709,2.5596 -2.64992,4.5752 -4.25,6.0313 -1.60011,1.4559 -3.21193,2.1874 -4.84375,2.1874 -0.95997,0 -1.64649,-0.2987 -2.0625,-0.875 -0.41602,-0.5759 -0.62501,-1.5917 -0.625,-3.0312 -10e-6,-2.9443 0.49864,-5.470281 2.25841,-9.470281 l 0.71875,0 0.25,0 c 2.08006,0 4.82714,-0.21 8.21875,-0.5938 l 0.33534,-1.779719 c -1.91994,0.1927 -4.18848,0.2813 -6.84375,0.2813 l -1.78125,0 c 0.73632,-1.5683 1.67675,-3.3286 2.8125,-5.3125 1.13574,-1.9839 2.00097,-3.5659 2.625,-4.75 0.62401,-1.184 0.93749,-2.0195 0.9375,-2.5 -10e-6,-0.3193 -0.10451,-0.5892 -0.3125,-0.7812 -0.20802,-0.1918 -0.43166,-0.2813 -0.6875,-0.2813 -0.92775,0 -2.1963,1.3282 -3.8125,4 -1.61622,2.6719 -3.12403,5.8214 -4.53125,9.4687 -0.25684,0 -0.97364,-0.06 -2.125,-0.1874 l -0.36659,1.810919 c 0.38379,0.1277 0.98242,0.247 1.75,0.375 -0.96582,2.5816 -1.29431,3.612945 -1.71986,5.499945 -1.5699,2.7586 -3.46575,4.242548 -5.66355,4.628648 0.19141,-0.7041 0.28124,-0.670012 0.28125,-1.533312 -10e-6,-1.5684 -0.41798,-3.6264 -1.25,-6.2188 -0.83204,-2.5919 -1.25001,-4.3838 -1.25,-5.3437 -10e-6,-0.4473 0.06,-0.8956 0.15625,-1.3437 0.0962,-0.4484 0.15624,-0.6872 0.15625,-0.75 -10e-6,-0.4162 -0.26905,-0.625 -0.78125,-0.625 -0.51222,0 -0.94484,0.2688 -1.3125,0.8124 -0.36769,0.5442 -0.5625,1.3497 -0.5625,2.4376 l 0,0.5624 c -1.12012,2.4004 -2.70215,4.7296 -4.75,6.9688 -0.0967,0.097 -0.31983,0.2154 -0.6875,0.375 -0.10683,0.046 -0.20835,0.106 -0.3125,0.1562 l -0.1875,-0.1562 c -0.0672,0.1292 -0.14941,0.248 -0.21875,0.375 -0.11277,0.063 -0.23435,0.1198 -0.34375,0.1875 -0.33594,0.208 -0.63428,0.6266 -0.90625,1.2187 -0.14306,0.3116 -0.24469,0.6445 -0.3125,1.0313 -0.90355,1.2058 -1.9111,2.3026 -3.0625,3.25 -1.9839,1.6323 -3.95411,2.4375 -5.90625,2.4375 -2.52833,0 -3.8125,-1.3428 -3.8125,-4.0312 0,-0.6086 0.0908,-1.1748 0.21875,-1.7188 2.94433,-0.288 5.66014,-1.333 8.15625,-3.125 2.49608,-1.792 3.74998,-3.8515 3.75,-6.1875 -2e-5,-1.9511 -1.01563,-2.9375 -3,-2.9375 -2.75196,0 -5.46827,1.5829 -8.15625,4.7188 -2.13707,2.4929 -3.40594,4.939 -3.84375,7.3124 -0.20704,0.279 -0.45895,0.5879 -0.71875,0.9063 -0.49611,0.608 -1.07814,1.0401 -1.75,1.3437 -0.67189,0.3037 -1.38673,0.4688 -2.1875,0.4688 -0.44727,0 -0.86525,-0.06 -1.25,-0.1562 1.1201,-2.2402 1.65624,-4.4199 1.65625,-6.5313 -10e-6,-1.4082 -0.26857,-2.4819 -0.8125,-3.25 -0.54396,-0.768 -1.25978,-1.1563 -2.1875,-1.1563 -1.12013,0 -2.09083,0.4625 -2.875,1.4063 -0.78419,0.9439 -1.15626,2.1836 -1.15625,3.6875 -10e-6,1.2803 0.29784,2.4888 0.90625,3.625 0.60839,1.1362 1.4746,1.9873 2.59375,2.5625 -0.60743,1.1846 -1.41407,2.1544 -2.40625,2.9063 -0.99219,0.7519 -1.94727,1.125 -2.875,1.125 -1.75977,0 -2.65625,-1.4922 -2.65625,-4.5 0,-1.7608 0.28369,-3.7008 0.84375,-5.8126 0.56005,-2.1117 1.05273,-3.5449 1.46875,-4.3124 1.79199,-1.0879 3.56884,-2.8345 5.3125,-5.2188 1.74364,-2.3842 3.11668,-4.7715 4.125,-7.1875 1.00828,-2.416 1.49998,-4.4022 1.5,-5.9063 -2e-5,-0.7675 -0.13429,-1.4384 -0.40625,-2.0624 -0.27199,-0.6241 -0.64455,-0.9376 -1.125,-0.9376 z m -0.28125,3.875 c 0.12789,0 0.18749,0.1192 0.1875,0.375 -10e-6,1.4083 -0.93947,3.9014 -2.84375,7.4376 -1.90431,3.5361 -3.88965,6.1181 -5.9375,7.75 0.67187,-2.2725 1.65722,-4.6758 2.9375,-7.1876 1.28026,-2.5117 2.42822,-4.5263 3.5,-6.0624 1.07177,-1.5362 1.8037,-2.3126 2.15625,-2.3126 z m 16.15625,14.5938 c 0.67186,0 0.99999,0.3572 1,1.0938 -10e-6,1.824 -1.0298,3.5561 -3.09375,5.1562 -2.06398,1.6001 -4.22852,2.7937 -6.46875,3.5938 0.67187,-2.3683 1.89599,-4.5912 3.65625,-6.6876 1.76025,-2.096 3.40233,-3.1562 4.90625,-3.1562 z m 12.01459,3.558376 c 0.228,0.975739 0.01,0.304424 0.29791,1.504124 0.28808,1.1997 0.52782,2.289 0.6875,3.2813 0.1597,0.9919 0.21874,1.9482 0.21875,2.8437 -10e-6,0.6719 0.17015,0.572664 0.0422,1.404664 -2.78321,-0.6074 -4.06386,-1.166973 -5.24842,-3.695273 1.47167,-1.4717 2.36924,-2.650015 4.00206,-5.338515 z m -31.67084,0.472824 c 0.44823,0 0.82079,0.3131 1.125,0.9688 0.30419,0.6558 0.43749,1.5371 0.4375,2.625 -10e-6,1.6641 -0.35744,3.2753 -1.09375,4.8438 -1.53615,-1.0245 -2.31251,-2.6651 -2.3125,-4.9688 -10e-6,-0.96 0.19433,-1.7968 0.5625,-2.4688 0.36816,-0.6718 0.80174,-1 1.28125,-1 z m 26.55656,6.873697 c 0.18267,1.015729 1.01777,1.7163 2.07393,2.4687 1.05615,0.7525 1.70904,1.395529 3.35061,1.471085 1.65716,0.07627 -1.01075,2.018891 -2.5436,1.717818 -1.1836,0 -2.15478,-0.4622 -2.875,-1.4063 -0.72021,-0.9438 -1.18293,-1.612497 -1.18293,-2.828497 0,-1.0876 0.47289,-1.391106 1.17699,-1.422806 z"
       id="path3002"
       inkscape:connector-curvature="0"
       sodipodi:nodetypes="sssssscscscscccsccssscccsccccsccscscccsscccccccccccscsccccccccccsscscsccscscccsccccsssscccccsssccscsscsccscscccccscccccscccscscc" />
  </g>
</svg>
